%TF.GenerationSoftware,KiCad,Pcbnew,9.0.7-1.fc43*%
%TF.CreationDate,2026-03-06T09:11:31+10:30*%
%TF.ProjectId,Simple MP3 Player,53696d70-6c65-4204-9d50-3320506c6179,rev?*%
%TF.SameCoordinates,Original*%
%TF.FileFunction,Soldermask,Top*%
%TF.FilePolarity,Negative*%
%FSLAX46Y46*%
G04 Gerber Fmt 4.6, Leading zero omitted, Abs format (unit mm)*
G04 Created by KiCad (PCBNEW 9.0.7-1.fc43) date 2026-03-06 09:11:31*
%MOMM*%
%LPD*%
G01*
G04 APERTURE LIST*
G04 Aperture macros list*
%AMRoundRect*
0 Rectangle with rounded corners*
0 $1 Rounding radius*
0 $2 $3 $4 $5 $6 $7 $8 $9 X,Y pos of 4 corners*
0 Add a 4 corners polygon primitive as box body*
4,1,4,$2,$3,$4,$5,$6,$7,$8,$9,$2,$3,0*
0 Add four circle primitives for the rounded corners*
1,1,$1+$1,$2,$3*
1,1,$1+$1,$4,$5*
1,1,$1+$1,$6,$7*
1,1,$1+$1,$8,$9*
0 Add four rect primitives between the rounded corners*
20,1,$1+$1,$2,$3,$4,$5,0*
20,1,$1+$1,$4,$5,$6,$7,0*
20,1,$1+$1,$6,$7,$8,$9,0*
20,1,$1+$1,$8,$9,$2,$3,0*%
G04 Aperture macros list end*
%ADD10RoundRect,0.100000X-0.130000X-0.100000X0.130000X-0.100000X0.130000X0.100000X-0.130000X0.100000X0*%
%ADD11RoundRect,0.525400X0.900400X0.525400X-0.900400X0.525400X-0.900400X-0.525400X0.900400X-0.525400X0*%
%ADD12RoundRect,0.300400X-1.000400X-0.300400X1.000400X-0.300400X1.000400X0.300400X-1.000400X0.300400X0*%
%ADD13C,1.700000*%
%ADD14C,1.600000*%
%ADD15R,1.500000X1.500000*%
%ADD16RoundRect,0.100000X0.100000X-0.130000X0.100000X0.130000X-0.100000X0.130000X-0.100000X-0.130000X0*%
%ADD17RoundRect,0.100000X-0.637500X-0.100000X0.637500X-0.100000X0.637500X0.100000X-0.637500X0.100000X0*%
%ADD18RoundRect,0.250000X-0.315000X0.295000X-0.315000X-0.295000X0.315000X-0.295000X0.315000X0.295000X0*%
%ADD19RoundRect,0.100000X-0.100000X0.130000X-0.100000X-0.130000X0.100000X-0.130000X0.100000X0.130000X0*%
%ADD20RoundRect,0.250000X0.315000X-0.295000X0.315000X0.295000X-0.315000X0.295000X-0.315000X-0.295000X0*%
%ADD21C,2.200000*%
%ADD22C,2.000000*%
%ADD23RoundRect,0.100000X0.130000X0.100000X-0.130000X0.100000X-0.130000X-0.100000X0.130000X-0.100000X0*%
%ADD24RoundRect,0.190500X0.762000X0.444500X-0.762000X0.444500X-0.762000X-0.444500X0.762000X-0.444500X0*%
%ADD25RoundRect,0.120000X0.630000X-0.280000X0.630000X0.280000X-0.630000X0.280000X-0.630000X-0.280000X0*%
%ADD26RoundRect,0.190500X0.444500X-0.762000X0.444500X0.762000X-0.444500X0.762000X-0.444500X-0.762000X0*%
%ADD27RoundRect,0.250000X-0.295000X-0.315000X0.295000X-0.315000X0.295000X0.315000X-0.295000X0.315000X0*%
%ADD28RoundRect,0.250000X-0.350000X-0.625000X0.350000X-0.625000X0.350000X0.625000X-0.350000X0.625000X0*%
%ADD29O,1.200000X1.750000*%
%ADD30O,3.200000X1.900000*%
%ADD31C,1.500000*%
%ADD32C,4.350000*%
G04 APERTURE END LIST*
D10*
%TO.C,R6*%
X106320000Y-108750000D03*
X105680000Y-108750000D03*
%TD*%
D11*
%TO.C,U1*%
X119745500Y-128189750D03*
X119745500Y-125649750D03*
X119745500Y-123109750D03*
X119745500Y-120569750D03*
X119745500Y-118029750D03*
X119745500Y-115489750D03*
X119745500Y-112949750D03*
X103580500Y-112949750D03*
X103580500Y-115489750D03*
X103580500Y-118029750D03*
X103580500Y-120569750D03*
X103580500Y-123109750D03*
X103580500Y-125649750D03*
X103580500Y-128189750D03*
D12*
X116135500Y-120951750D03*
X116135500Y-122856750D03*
D13*
X112960500Y-129201750D03*
X110420500Y-129201750D03*
X112960500Y-126661750D03*
X110420500Y-126661750D03*
X112960500Y-124121750D03*
X110420500Y-124121750D03*
%TD*%
D14*
%TO.C,SW2*%
X149790000Y-39000000D03*
X144710000Y-39000000D03*
D15*
X147250000Y-39000000D03*
%TD*%
D16*
%TO.C,R7*%
X111250000Y-75990000D03*
X111250000Y-75350000D03*
%TD*%
D17*
%TO.C,U5*%
X114750000Y-70000000D03*
X114750000Y-70650000D03*
X114750000Y-71300000D03*
X114750000Y-71950000D03*
X114750000Y-72600000D03*
X114750000Y-73250000D03*
X114750000Y-73900000D03*
X114750000Y-74550000D03*
X114750000Y-75200000D03*
X114750000Y-75850000D03*
X114750000Y-76500000D03*
X114750000Y-77150000D03*
X120475000Y-77150000D03*
X120475000Y-76500000D03*
X120475000Y-75850000D03*
X120475000Y-75200000D03*
X120475000Y-74550000D03*
X120475000Y-73900000D03*
X120475000Y-73250000D03*
X120475000Y-72600000D03*
X120475000Y-71950000D03*
X120475000Y-71300000D03*
X120475000Y-70650000D03*
X120475000Y-70000000D03*
%TD*%
D16*
%TO.C,R8*%
X108500000Y-79165000D03*
X108500000Y-78525000D03*
%TD*%
D18*
%TO.C,C4*%
X131000000Y-89570000D03*
X131000000Y-91000000D03*
%TD*%
D19*
%TO.C,C8*%
X138750000Y-81430000D03*
X138750000Y-82070000D03*
%TD*%
D10*
%TO.C,C14*%
X140335000Y-71000000D03*
X140975000Y-71000000D03*
%TD*%
D20*
%TO.C,C9*%
X152250000Y-87780000D03*
X152250000Y-86350000D03*
%TD*%
D16*
%TO.C,C3*%
X123405000Y-70670000D03*
X123405000Y-70030000D03*
%TD*%
%TO.C,C13*%
X137500000Y-75320000D03*
X137500000Y-74680000D03*
%TD*%
D19*
%TO.C,R1*%
X136250000Y-75180000D03*
X136250000Y-75820000D03*
%TD*%
D21*
%TO.C,J5*%
X150750000Y-79350000D03*
X150750000Y-69350000D03*
X145750000Y-74350000D03*
D22*
X145750000Y-69350000D03*
X145750000Y-71850000D03*
D21*
X150750000Y-74350000D03*
D22*
X145750000Y-79350000D03*
X145750000Y-76850000D03*
%TD*%
D15*
%TO.C,SW1*%
X102500000Y-43040000D03*
D14*
X102500000Y-45580000D03*
X102500000Y-40500000D03*
%TD*%
D23*
%TO.C,R4*%
X137640000Y-71000000D03*
X137000000Y-71000000D03*
%TD*%
D16*
%TO.C,C12*%
X149250000Y-83325000D03*
X149250000Y-82685000D03*
%TD*%
%TO.C,C1*%
X135500000Y-90140000D03*
X135500000Y-89500000D03*
%TD*%
D10*
%TO.C,R2*%
X123585000Y-72350000D03*
X124225000Y-72350000D03*
%TD*%
%TO.C,R3*%
X122335000Y-74000000D03*
X122975000Y-74000000D03*
%TD*%
%TO.C,C6*%
X139180000Y-80680000D03*
X139820000Y-80680000D03*
%TD*%
D19*
%TO.C,C7*%
X131750000Y-85530000D03*
X131750000Y-86170000D03*
%TD*%
D23*
%TO.C,R5*%
X128070000Y-74000000D03*
X127430000Y-74000000D03*
%TD*%
D16*
%TO.C,C10*%
X149500000Y-85640000D03*
X149500000Y-85000000D03*
%TD*%
D24*
%TO.C,J2*%
X103475000Y-63425000D03*
X104475000Y-50275000D03*
D25*
X107125000Y-58775000D03*
X107125000Y-57675000D03*
X107125000Y-56525000D03*
X107125000Y-55425000D03*
X107125000Y-54275000D03*
X107125000Y-53175000D03*
X107125000Y-52025000D03*
X107125000Y-50925000D03*
D26*
X115975000Y-51875000D03*
X115975000Y-57575000D03*
%TD*%
D16*
%TO.C,C2*%
X118905000Y-55670000D03*
X118905000Y-55030000D03*
%TD*%
D27*
%TO.C,C5*%
X134535000Y-73750000D03*
X135965000Y-73750000D03*
%TD*%
D17*
%TO.C,U3*%
X140887500Y-82425000D03*
X140887500Y-83075000D03*
X140887500Y-83725000D03*
X140887500Y-84375000D03*
X140887500Y-85025000D03*
X140887500Y-85675000D03*
X140887500Y-86325000D03*
X140887500Y-86975000D03*
X140887500Y-87625000D03*
X140887500Y-88275000D03*
X146612500Y-88275000D03*
X146612500Y-87625000D03*
X146612500Y-86975000D03*
X146612500Y-86325000D03*
X146612500Y-85675000D03*
X146612500Y-85025000D03*
X146612500Y-84375000D03*
X146612500Y-83725000D03*
X146612500Y-83075000D03*
X146612500Y-82425000D03*
%TD*%
D18*
%TO.C,C11*%
X152250000Y-82635000D03*
X152250000Y-84065000D03*
%TD*%
D28*
%TO.C,J1*%
X127250000Y-40350000D03*
D29*
X129250000Y-40350000D03*
%TD*%
D30*
%TO.C,SW7*%
X136500000Y-80100000D03*
X124000000Y-80100000D03*
X136500000Y-85100000D03*
X124000000Y-85100000D03*
%TD*%
D14*
%TO.C,U2*%
X152950000Y-65630000D03*
X150410000Y-65630000D03*
X147870000Y-65630000D03*
X145330000Y-65630000D03*
X142790000Y-65630000D03*
X140250000Y-65630000D03*
X137710000Y-65630000D03*
X135170000Y-65630000D03*
X132630000Y-65630000D03*
X130090000Y-65630000D03*
X127550000Y-65630000D03*
X125010000Y-65630000D03*
X122470000Y-65630000D03*
X119930000Y-65630000D03*
X117390000Y-65630000D03*
X114850000Y-65630000D03*
X112310000Y-65630000D03*
X109770000Y-65630000D03*
X107230000Y-65630000D03*
X104690000Y-65630000D03*
X152950000Y-47850000D03*
X150410000Y-47850000D03*
X147870000Y-47850000D03*
X145330000Y-47850000D03*
X142790000Y-47850000D03*
X140250000Y-47850000D03*
X137710000Y-47850000D03*
X135170000Y-47850000D03*
X132630000Y-47850000D03*
X130090000Y-47850000D03*
X127550000Y-47850000D03*
X125010000Y-47850000D03*
X122470000Y-47850000D03*
X119930000Y-47850000D03*
X117390000Y-47850000D03*
X114850000Y-47850000D03*
X112310000Y-47850000D03*
X109770000Y-47850000D03*
X107230000Y-47850000D03*
X104690000Y-47850000D03*
%TD*%
D30*
%TO.C,SW4*%
X136500000Y-111550000D03*
X124000000Y-111550000D03*
X136500000Y-116550000D03*
X124000000Y-116550000D03*
%TD*%
%TO.C,SW3*%
X136500000Y-96000000D03*
X124000000Y-96000000D03*
X136500000Y-101000000D03*
X124000000Y-101000000D03*
%TD*%
D31*
%TO.C,SW8*%
X150250000Y-129350000D03*
X145250000Y-129350000D03*
X147750000Y-129350000D03*
X150250000Y-114850000D03*
X145250000Y-114850000D03*
D32*
X153350000Y-121850000D03*
X142150000Y-121850000D03*
%TD*%
D30*
%TO.C,SW5*%
X120000000Y-96100000D03*
X107500000Y-96100000D03*
X120000000Y-101100000D03*
X107500000Y-101100000D03*
%TD*%
%TO.C,SW6*%
X153000000Y-96100000D03*
X140500000Y-96100000D03*
X153000000Y-101100000D03*
X140500000Y-101100000D03*
%TD*%
M02*
