M48
; DRILL file {KiCad 9.0.7-1.fc43} date 2026-03-06T14:25:07+1030
; FORMAT={-:-/ absolute / metric / decimal}
; #@! TF.CreationDate,2026-03-06T14:25:07+10:30
; #@! TF.GenerationSoftware,Kicad,Pcbnew,9.0.7-1.fc43
; #@! TF.FileFunction,Plated,1,4,PTH
FMAT,2
METRIC
; #@! TA.AperFunction,Plated,PTH,ViaDrill
T1C0.300
; #@! TA.AperFunction,Plated,PTH,ComponentDrill
T2C0.750
; #@! TA.AperFunction,Plated,PTH,ComponentDrill
T3C0.800
; #@! TA.AperFunction,Plated,PTH,ComponentDrill
T4C1.000
; #@! TA.AperFunction,Plated,PTH,ComponentDrill
T5C1.300
; #@! TA.AperFunction,Plated,PTH,ComponentDrill
T6C1.600
; #@! TA.AperFunction,Plated,PTH,ComponentDrill
T7C2.900
%
G90
G05
T1
X102.0Y-47.5
X105.5Y-119.75
X105.75Y-125.25
X106.0Y-110.25
X108.5Y-80.0
X108.575Y-54.275
X108.75Y-127.0
X109.5Y-53.5
X111.5Y-79.5
X111.811Y-127.811
X112.5Y-78.5
X113.0Y-75.39
X113.5Y-71.0
X114.25Y-121.0
X114.5Y-122.75
X114.753Y-82.073
X116.0Y-77.5
X116.5Y-71.0
X116.5Y-75.0
X117.0Y-72.5
X117.066Y-74.434
X117.5Y-76.5
X118.0Y-52.5
X118.0Y-116.75
X118.5Y-72.0
X119.0Y-68.5
X119.174Y-71.174
X121.25Y-114.25
X121.5Y-127.0
X121.75Y-119.5
X122.5Y-75.42
X122.5Y-121.0
X123.0Y-73.0
X123.4Y-78.08
X123.5Y-76.0
X124.5Y-71.0
X125.0Y-76.5
X126.5Y-61.5
X129.15Y-76.85
X132.5Y-86.5
X136.074Y-109.574
X136.25Y-78.25
X137.215Y-74.035
X138.5Y-74.5
X139.0Y-76.0
X139.5Y-84.0
X139.5Y-88.5
X142.0Y-71.5
X148.0Y-83.0
X148.0Y-85.0
X148.0Y-88.5
X153.5Y-85.0
T2
X127.25Y-40.35
X129.25Y-40.35
T3
X102.5Y-40.5
X102.5Y-43.04
X102.5Y-45.58
X144.71Y-39.0
X147.25Y-39.0
X149.79Y-39.0
T4
X104.69Y-47.85
X104.69Y-65.63
X107.23Y-47.85
X107.23Y-65.63
X109.77Y-47.85
X109.77Y-65.63
X112.31Y-47.85
X112.31Y-65.63
X114.85Y-47.85
X114.85Y-65.63
X117.39Y-47.85
X117.39Y-65.63
X119.93Y-47.85
X119.93Y-65.63
X122.47Y-47.85
X122.47Y-65.63
X125.01Y-47.85
X125.01Y-65.63
X127.55Y-47.85
X127.55Y-65.63
X130.09Y-47.85
X130.09Y-65.63
X132.63Y-47.85
X132.63Y-65.63
X135.17Y-47.85
X135.17Y-65.63
X137.71Y-47.85
X137.71Y-65.63
X140.25Y-47.85
X140.25Y-65.63
X142.79Y-47.85
X142.79Y-65.63
X145.25Y-114.85
X145.25Y-129.35
X145.33Y-47.85
X145.33Y-65.63
X147.75Y-129.35
X147.87Y-47.85
X147.87Y-65.63
X150.25Y-114.85
X150.25Y-129.35
X150.41Y-47.85
X150.41Y-65.63
X152.95Y-47.85
X152.95Y-65.63
T5
X107.5Y-96.1
X107.5Y-101.1
X120.0Y-96.1
X120.0Y-101.1
X124.0Y-80.1
X124.0Y-85.1
X124.0Y-96.0
X124.0Y-101.0
X124.0Y-111.55
X124.0Y-116.55
X136.5Y-80.1
X136.5Y-85.1
X136.5Y-96.0
X136.5Y-101.0
X136.5Y-111.55
X136.5Y-116.55
X140.5Y-96.1
X140.5Y-101.1
X145.75Y-69.35
X145.75Y-71.85
X145.75Y-76.85
X145.75Y-79.35
X153.0Y-96.1
X153.0Y-101.1
T6
X145.75Y-74.35
X150.75Y-69.35
X150.75Y-74.35
X150.75Y-79.35
T7
X142.15Y-121.85
X153.35Y-121.85
M30
