%TF.GenerationSoftware,KiCad,Pcbnew,9.0.7-1.fc43*%
%TF.CreationDate,2026-03-06T09:11:29+10:30*%
%TF.ProjectId,Simple MP3 Player,53696d70-6c65-4204-9d50-3320506c6179,rev?*%
%TF.SameCoordinates,Original*%
%TF.FileFunction,Copper,L1,Top*%
%TF.FilePolarity,Positive*%
%FSLAX46Y46*%
G04 Gerber Fmt 4.6, Leading zero omitted, Abs format (unit mm)*
G04 Created by KiCad (PCBNEW 9.0.7-1.fc43) date 2026-03-06 09:11:29*
%MOMM*%
%LPD*%
G01*
G04 APERTURE LIST*
G04 Aperture macros list*
%AMRoundRect*
0 Rectangle with rounded corners*
0 $1 Rounding radius*
0 $2 $3 $4 $5 $6 $7 $8 $9 X,Y pos of 4 corners*
0 Add a 4 corners polygon primitive as box body*
4,1,4,$2,$3,$4,$5,$6,$7,$8,$9,$2,$3,0*
0 Add four circle primitives for the rounded corners*
1,1,$1+$1,$2,$3*
1,1,$1+$1,$4,$5*
1,1,$1+$1,$6,$7*
1,1,$1+$1,$8,$9*
0 Add four rect primitives between the rounded corners*
20,1,$1+$1,$2,$3,$4,$5,0*
20,1,$1+$1,$4,$5,$6,$7,0*
20,1,$1+$1,$6,$7,$8,$9,0*
20,1,$1+$1,$8,$9,$2,$3,0*%
G04 Aperture macros list end*
%TA.AperFunction,SMDPad,CuDef*%
%ADD10RoundRect,0.100000X-0.130000X-0.100000X0.130000X-0.100000X0.130000X0.100000X-0.130000X0.100000X0*%
%TD*%
%TA.AperFunction,SMDPad,CuDef*%
%ADD11RoundRect,0.500000X0.875000X0.500000X-0.875000X0.500000X-0.875000X-0.500000X0.875000X-0.500000X0*%
%TD*%
%TA.AperFunction,SMDPad,CuDef*%
%ADD12RoundRect,0.275000X-0.975000X-0.275000X0.975000X-0.275000X0.975000X0.275000X-0.975000X0.275000X0*%
%TD*%
%TA.AperFunction,SMDPad,CuDef*%
%ADD13C,1.700000*%
%TD*%
%TA.AperFunction,ComponentPad*%
%ADD14C,1.600000*%
%TD*%
%TA.AperFunction,ComponentPad*%
%ADD15R,1.500000X1.500000*%
%TD*%
%TA.AperFunction,SMDPad,CuDef*%
%ADD16RoundRect,0.100000X0.100000X-0.130000X0.100000X0.130000X-0.100000X0.130000X-0.100000X-0.130000X0*%
%TD*%
%TA.AperFunction,SMDPad,CuDef*%
%ADD17RoundRect,0.100000X-0.637500X-0.100000X0.637500X-0.100000X0.637500X0.100000X-0.637500X0.100000X0*%
%TD*%
%TA.AperFunction,SMDPad,CuDef*%
%ADD18RoundRect,0.250000X-0.315000X0.295000X-0.315000X-0.295000X0.315000X-0.295000X0.315000X0.295000X0*%
%TD*%
%TA.AperFunction,SMDPad,CuDef*%
%ADD19RoundRect,0.100000X-0.100000X0.130000X-0.100000X-0.130000X0.100000X-0.130000X0.100000X0.130000X0*%
%TD*%
%TA.AperFunction,SMDPad,CuDef*%
%ADD20RoundRect,0.250000X0.315000X-0.295000X0.315000X0.295000X-0.315000X0.295000X-0.315000X-0.295000X0*%
%TD*%
%TA.AperFunction,ComponentPad*%
%ADD21C,2.200000*%
%TD*%
%TA.AperFunction,ComponentPad*%
%ADD22C,2.000000*%
%TD*%
%TA.AperFunction,SMDPad,CuDef*%
%ADD23RoundRect,0.100000X0.130000X0.100000X-0.130000X0.100000X-0.130000X-0.100000X0.130000X-0.100000X0*%
%TD*%
%TA.AperFunction,SMDPad,CuDef*%
%ADD24RoundRect,0.190500X0.762000X0.444500X-0.762000X0.444500X-0.762000X-0.444500X0.762000X-0.444500X0*%
%TD*%
%TA.AperFunction,SMDPad,CuDef*%
%ADD25RoundRect,0.120000X0.630000X-0.280000X0.630000X0.280000X-0.630000X0.280000X-0.630000X-0.280000X0*%
%TD*%
%TA.AperFunction,SMDPad,CuDef*%
%ADD26RoundRect,0.190500X0.444500X-0.762000X0.444500X0.762000X-0.444500X0.762000X-0.444500X-0.762000X0*%
%TD*%
%TA.AperFunction,SMDPad,CuDef*%
%ADD27RoundRect,0.250000X-0.295000X-0.315000X0.295000X-0.315000X0.295000X0.315000X-0.295000X0.315000X0*%
%TD*%
%TA.AperFunction,ComponentPad*%
%ADD28RoundRect,0.250000X-0.350000X-0.625000X0.350000X-0.625000X0.350000X0.625000X-0.350000X0.625000X0*%
%TD*%
%TA.AperFunction,ComponentPad*%
%ADD29O,1.200000X1.750000*%
%TD*%
%TA.AperFunction,ComponentPad*%
%ADD30O,3.200000X1.900000*%
%TD*%
%TA.AperFunction,ComponentPad*%
%ADD31C,1.500000*%
%TD*%
%TA.AperFunction,ComponentPad*%
%ADD32C,4.350000*%
%TD*%
%TA.AperFunction,ViaPad*%
%ADD33C,0.600000*%
%TD*%
%TA.AperFunction,Conductor*%
%ADD34C,0.200000*%
%TD*%
G04 APERTURE END LIST*
D10*
%TO.P,R6,2*%
%TO.N,Net-(U1-CHIP_EN)*%
X106320000Y-108750000D03*
%TO.P,R6,1*%
%TO.N,Net-(J2-VDD)*%
X105680000Y-108750000D03*
%TD*%
D11*
%TO.P,U1,1,GPIO1_A0_D0*%
%TO.N,Net-(U1-GPIO1_A0_D0)*%
X119745500Y-128189750D03*
%TO.P,U1,2,GPIO2_A1_D1*%
%TO.N,Net-(U1-GPIO2_A1_D1)*%
X119745500Y-125649750D03*
%TO.P,U1,3,GPIO3_A2_D2*%
%TO.N,Net-(U1-GPIO3_A2_D2)*%
X119745500Y-123109750D03*
%TO.P,U1,4,GPIO4_A3_D3*%
%TO.N,Net-(U1-GPIO4_A3_D3)*%
X119745500Y-120569750D03*
%TO.P,U1,5,GPIO5_A4_D4_SDA*%
%TO.N,Net-(U1-GPIO5_A4_D4_SDA)*%
X119745500Y-118029750D03*
%TO.P,U1,6,GPIO6_A5_D5_SCL*%
%TO.N,Net-(U1-GPIO6_A5_D5_SCL)*%
X119745500Y-115489750D03*
%TO.P,U1,7,GPIO43_A6_D6_TX*%
%TO.N,unconnected-(U1-GPIO43_A6_D6_TX-Pad7)*%
X119745500Y-112949750D03*
%TO.P,U1,8,GPIO44_D7_RX*%
%TO.N,unconnected-(U1-GPIO44_D7_RX-Pad8)*%
X103580500Y-112949750D03*
%TO.P,U1,9,GPIO7_A8_D8_SCK*%
%TO.N,Net-(J2-CLK)*%
X103580500Y-115489750D03*
%TO.P,U1,10,GPIO8_A9_D9_MISO*%
%TO.N,Net-(J2-DAT0)*%
X103580500Y-118029750D03*
%TO.P,U1,11,GPIO9_A10_D10_MOSI*%
%TO.N,Net-(J2-CMD)*%
X103580500Y-120569750D03*
%TO.P,U1,12,3V3*%
%TO.N,Net-(J2-VDD)*%
X103580500Y-123109750D03*
%TO.P,U1,13,GND*%
%TO.N,GND*%
X103580500Y-125649750D03*
%TO.P,U1,14,5V*%
%TO.N,unconnected-(U1-5V-Pad14)*%
X103580500Y-128189750D03*
D12*
%TO.P,U1,15,BAT*%
%TO.N,Net-(U1-BAT)*%
X116135500Y-120951750D03*
%TO.P,U1,16,GND*%
%TO.N,GND*%
X116135500Y-122856750D03*
D13*
%TO.P,U1,17,MTDI*%
%TO.N,unconnected-(U1-MTDI-Pad17)*%
X112960500Y-129201750D03*
%TO.P,U1,18,MTDO*%
%TO.N,unconnected-(U1-MTDO-Pad18)*%
X110420500Y-129201750D03*
%TO.P,U1,19,CHIP_EN*%
%TO.N,Net-(U1-CHIP_EN)*%
X112960500Y-126661750D03*
%TO.P,U1,20,GND*%
%TO.N,GND*%
X110420500Y-126661750D03*
%TO.P,U1,21,MTMS*%
%TO.N,unconnected-(U1-MTMS-Pad21)*%
X112960500Y-124121750D03*
%TO.P,U1,22,MTCK*%
%TO.N,unconnected-(U1-MTCK-Pad22)*%
X110420500Y-124121750D03*
%TD*%
D14*
%TO.P,SW2,3,A*%
%TO.N,unconnected-(SW2-A-Pad3)*%
X149790000Y-39000000D03*
%TO.P,SW2,2,C*%
%TO.N,Net-(SW2-C)*%
X144710000Y-39000000D03*
D15*
%TO.P,SW2,1,B*%
%TO.N,Net-(J2-VDD)*%
X147250000Y-39000000D03*
%TD*%
D16*
%TO.P,R7,1*%
%TO.N,Net-(U5-IO0_6)*%
X111250000Y-75990000D03*
%TO.P,R7,2*%
%TO.N,Net-(SW2-C)*%
X111250000Y-75350000D03*
%TD*%
D17*
%TO.P,U5,1,~{INT}*%
%TO.N,unconnected-(U5-~{INT}-Pad1)*%
X114750000Y-70000000D03*
%TO.P,U5,2,A1*%
%TO.N,GND*%
X114750000Y-70650000D03*
%TO.P,U5,3,A2*%
X114750000Y-71300000D03*
%TO.P,U5,4,IO0_0*%
%TO.N,Net-(U5-IO0_0)*%
X114750000Y-71950000D03*
%TO.P,U5,5,IO0_1*%
%TO.N,Net-(U5-IO0_1)*%
X114750000Y-72600000D03*
%TO.P,U5,6,IO0_2*%
%TO.N,Net-(U5-IO0_2)*%
X114750000Y-73250000D03*
%TO.P,U5,7,IO0_3*%
%TO.N,Net-(U5-IO0_3)*%
X114750000Y-73900000D03*
%TO.P,U5,8,IO0_4*%
%TO.N,Net-(U5-IO0_4)*%
X114750000Y-74550000D03*
%TO.P,U5,9,IO0_5*%
%TO.N,Net-(U5-IO0_5)*%
X114750000Y-75200000D03*
%TO.P,U5,10,IO0_6*%
%TO.N,Net-(U5-IO0_6)*%
X114750000Y-75850000D03*
%TO.P,U5,11,IO0_7*%
%TO.N,Net-(U5-IO0_7)*%
X114750000Y-76500000D03*
%TO.P,U5,12,VSS*%
%TO.N,unconnected-(U5-VSS-Pad12)*%
X114750000Y-77150000D03*
%TO.P,U5,13,IO1_0*%
%TO.N,Net-(U2-RST)*%
X120475000Y-77150000D03*
%TO.P,U5,14,IO1_1*%
%TO.N,unconnected-(U5-IO1_1-Pad14)*%
X120475000Y-76500000D03*
%TO.P,U5,15,IO1_2*%
%TO.N,unconnected-(U5-IO1_2-Pad15)*%
X120475000Y-75850000D03*
%TO.P,U5,16,IO1_3*%
%TO.N,unconnected-(U5-IO1_3-Pad16)*%
X120475000Y-75200000D03*
%TO.P,U5,17,IO1_4*%
%TO.N,unconnected-(U5-IO1_4-Pad17)*%
X120475000Y-74550000D03*
%TO.P,U5,18,IO1_5*%
%TO.N,Net-(J2-DAT3{slash}CD)*%
X120475000Y-73900000D03*
%TO.P,U5,19,IO1_6*%
%TO.N,Net-(U2-SPI_CS)*%
X120475000Y-73250000D03*
%TO.P,U5,20,IO1_7*%
%TO.N,Net-(U2-SPI_DC)*%
X120475000Y-72600000D03*
%TO.P,U5,21,A0*%
%TO.N,GND*%
X120475000Y-71950000D03*
%TO.P,U5,22,SCL*%
%TO.N,Net-(U1-GPIO6_A5_D5_SCL)*%
X120475000Y-71300000D03*
%TO.P,U5,23,SDA*%
%TO.N,Net-(U1-GPIO5_A4_D4_SDA)*%
X120475000Y-70650000D03*
%TO.P,U5,24,VDD*%
%TO.N,Net-(SW2-C)*%
X120475000Y-70000000D03*
%TD*%
D16*
%TO.P,R8,1*%
%TO.N,Net-(U5-IO0_5)*%
X108500000Y-79165000D03*
%TO.P,R8,2*%
%TO.N,Net-(SW2-C)*%
X108500000Y-78525000D03*
%TD*%
D18*
%TO.P,C4,1*%
%TO.N,Net-(J2-VDD)*%
X131000000Y-89570000D03*
%TO.P,C4,2*%
%TO.N,Net-(U3-AGND)*%
X131000000Y-91000000D03*
%TD*%
D19*
%TO.P,C8,1*%
%TO.N,Net-(U3-CAPP)*%
X138750000Y-81430000D03*
%TO.P,C8,2*%
%TO.N,Net-(U3-CAPM)*%
X138750000Y-82070000D03*
%TD*%
D10*
%TO.P,C14,1*%
%TO.N,Net-(C14-Pad1)*%
X140335000Y-71000000D03*
%TO.P,C14,2*%
%TO.N,GND*%
X140975000Y-71000000D03*
%TD*%
D20*
%TO.P,C9,1*%
%TO.N,Net-(U3-LDOO)*%
X152250000Y-87780000D03*
%TO.P,C9,2*%
%TO.N,GND*%
X152250000Y-86350000D03*
%TD*%
D16*
%TO.P,C3,1*%
%TO.N,GND*%
X123405000Y-70670000D03*
%TO.P,C3,2*%
%TO.N,Net-(SW2-C)*%
X123405000Y-70030000D03*
%TD*%
%TO.P,C13,1*%
%TO.N,Net-(C13-Pad1)*%
X137500000Y-75320000D03*
%TO.P,C13,2*%
%TO.N,GND*%
X137500000Y-74680000D03*
%TD*%
D19*
%TO.P,R1,1*%
%TO.N,Net-(C13-Pad1)*%
X136250000Y-75180000D03*
%TO.P,R1,2*%
%TO.N,Net-(U3-OUTL)*%
X136250000Y-75820000D03*
%TD*%
D21*
%TO.P,J5,NC*%
%TO.N,N/C*%
X150750000Y-79350000D03*
X150750000Y-69350000D03*
X145750000Y-74350000D03*
D22*
%TO.P,J5,R*%
%TO.N,Net-(C14-Pad1)*%
X145750000Y-69350000D03*
%TO.P,J5,RN*%
%TO.N,GND*%
X145750000Y-71850000D03*
D21*
%TO.P,J5,S*%
X150750000Y-74350000D03*
D22*
%TO.P,J5,T*%
%TO.N,Net-(C13-Pad1)*%
X145750000Y-79350000D03*
%TO.P,J5,TN*%
%TO.N,Net-(U5-IO0_7)*%
X145750000Y-76850000D03*
%TD*%
D15*
%TO.P,SW1,1,1*%
%TO.N,Net-(J1-Pin_1)*%
X102500000Y-43040000D03*
D14*
%TO.P,SW1,2,2*%
%TO.N,Net-(U1-BAT)*%
X102500000Y-45580000D03*
%TO.P,SW1,3*%
%TO.N,N/C*%
X102500000Y-40500000D03*
%TD*%
D23*
%TO.P,R4,1*%
%TO.N,Net-(C14-Pad1)*%
X137640000Y-71000000D03*
%TO.P,R4,2*%
%TO.N,Net-(U3-OUTR)*%
X137000000Y-71000000D03*
%TD*%
D16*
%TO.P,C12,1*%
%TO.N,GND*%
X149250000Y-83325000D03*
%TO.P,C12,2*%
%TO.N,Net-(U3-DVDD)*%
X149250000Y-82685000D03*
%TD*%
%TO.P,C1,1*%
%TO.N,Net-(U3-AGND)*%
X135500000Y-90140000D03*
%TO.P,C1,2*%
%TO.N,Net-(J2-VDD)*%
X135500000Y-89500000D03*
%TD*%
D10*
%TO.P,R2,1*%
%TO.N,Net-(U1-GPIO5_A4_D4_SDA)*%
X123585000Y-72350000D03*
%TO.P,R2,2*%
%TO.N,Net-(J2-VDD)*%
X124225000Y-72350000D03*
%TD*%
%TO.P,R3,1*%
%TO.N,Net-(U1-GPIO6_A5_D5_SCL)*%
X122335000Y-74000000D03*
%TO.P,R3,2*%
%TO.N,Net-(J2-VDD)*%
X122975000Y-74000000D03*
%TD*%
%TO.P,C6,1*%
%TO.N,GND*%
X139180000Y-80680000D03*
%TO.P,C6,2*%
%TO.N,Net-(J2-VDD)*%
X139820000Y-80680000D03*
%TD*%
D19*
%TO.P,C7,1*%
%TO.N,Net-(U3-VNEG)*%
X131750000Y-85530000D03*
%TO.P,C7,2*%
%TO.N,GND*%
X131750000Y-86170000D03*
%TD*%
D23*
%TO.P,R5,1*%
%TO.N,Net-(U5-IO0_7)*%
X128070000Y-74000000D03*
%TO.P,R5,2*%
%TO.N,Net-(J2-VDD)*%
X127430000Y-74000000D03*
%TD*%
D16*
%TO.P,C10,1*%
%TO.N,GND*%
X149500000Y-85640000D03*
%TO.P,C10,2*%
%TO.N,Net-(U3-LDOO)*%
X149500000Y-85000000D03*
%TD*%
D24*
%TO.P,J2,0*%
%TO.N,N/C*%
X103475000Y-63425000D03*
X104475000Y-50275000D03*
D25*
%TO.P,J2,1,DAT2*%
%TO.N,unconnected-(J2-DAT2-Pad1)*%
X107125000Y-58775000D03*
%TO.P,J2,2,DAT3/CD*%
%TO.N,Net-(J2-DAT3{slash}CD)*%
X107125000Y-57675000D03*
%TO.P,J2,3,CMD*%
%TO.N,Net-(J2-CMD)*%
X107125000Y-56525000D03*
%TO.P,J2,4,VDD*%
%TO.N,Net-(J2-VDD)*%
X107125000Y-55425000D03*
%TO.P,J2,5,CLK*%
%TO.N,Net-(J2-CLK)*%
X107125000Y-54275000D03*
%TO.P,J2,6,VSS*%
%TO.N,GND*%
X107125000Y-53175000D03*
%TO.P,J2,7,DAT0*%
%TO.N,Net-(J2-DAT0)*%
X107125000Y-52025000D03*
%TO.P,J2,8,DAT1*%
%TO.N,unconnected-(J2-DAT1-Pad8)*%
X107125000Y-50925000D03*
D26*
%TO.P,J2,9,SHIELD*%
%TO.N,GND*%
X115975000Y-51875000D03*
%TO.P,J2,10*%
%TO.N,N/C*%
X115975000Y-57575000D03*
%TD*%
D16*
%TO.P,C2,1*%
%TO.N,Net-(J2-VDD)*%
X118905000Y-55670000D03*
%TO.P,C2,2*%
%TO.N,GND*%
X118905000Y-55030000D03*
%TD*%
D27*
%TO.P,C5,1*%
%TO.N,Net-(J2-VDD)*%
X134535000Y-73750000D03*
%TO.P,C5,2*%
%TO.N,GND*%
X135965000Y-73750000D03*
%TD*%
D17*
%TO.P,U3,1,CPVDD*%
%TO.N,Net-(J2-VDD)*%
X140887500Y-82425000D03*
%TO.P,U3,2,CAPP*%
%TO.N,Net-(U3-CAPP)*%
X140887500Y-83075000D03*
%TO.P,U3,3,CPGND*%
%TO.N,GND*%
X140887500Y-83725000D03*
%TO.P,U3,4,CAPM*%
%TO.N,Net-(U3-CAPM)*%
X140887500Y-84375000D03*
%TO.P,U3,5,VNEG*%
%TO.N,Net-(U3-VNEG)*%
X140887500Y-85025000D03*
%TO.P,U3,6,OUTL*%
%TO.N,Net-(U3-OUTL)*%
X140887500Y-85675000D03*
%TO.P,U3,7,OUTR*%
%TO.N,Net-(U3-OUTR)*%
X140887500Y-86325000D03*
%TO.P,U3,8,AVDD*%
%TO.N,Net-(J2-VDD)*%
X140887500Y-86975000D03*
%TO.P,U3,9,AGND*%
%TO.N,Net-(U3-AGND)*%
X140887500Y-87625000D03*
%TO.P,U3,10,DEMP*%
%TO.N,GND*%
X140887500Y-88275000D03*
%TO.P,U3,11,FLT*%
X146612500Y-88275000D03*
%TO.P,U3,12,SCK*%
%TO.N,unconnected-(U3-SCK-Pad12)*%
X146612500Y-87625000D03*
%TO.P,U3,13,BCK*%
%TO.N,Net-(U1-GPIO2_A1_D1)*%
X146612500Y-86975000D03*
%TO.P,U3,14,DIN*%
%TO.N,Net-(U1-GPIO4_A3_D3)*%
X146612500Y-86325000D03*
%TO.P,U3,15,LRCK*%
%TO.N,Net-(U1-GPIO3_A2_D2)*%
X146612500Y-85675000D03*
%TO.P,U3,16,FMT*%
%TO.N,GND*%
X146612500Y-85025000D03*
%TO.P,U3,17,XSMT*%
%TO.N,Net-(U1-GPIO1_A0_D0)*%
X146612500Y-84375000D03*
%TO.P,U3,18,LDOO*%
%TO.N,Net-(U3-LDOO)*%
X146612500Y-83725000D03*
%TO.P,U3,19,DGND*%
%TO.N,GND*%
X146612500Y-83075000D03*
%TO.P,U3,20,DVDD*%
%TO.N,Net-(U3-DVDD)*%
X146612500Y-82425000D03*
%TD*%
D18*
%TO.P,C11,1*%
%TO.N,Net-(U3-DVDD)*%
X152250000Y-82635000D03*
%TO.P,C11,2*%
%TO.N,GND*%
X152250000Y-84065000D03*
%TD*%
D28*
%TO.P,J1,1,Pin_1*%
%TO.N,Net-(J1-Pin_1)*%
X127250000Y-40350000D03*
D29*
%TO.P,J1,2,Pin_2*%
%TO.N,GND*%
X129250000Y-40350000D03*
%TD*%
D30*
%TO.P,SW7,1,1*%
%TO.N,Net-(U5-IO0_0)*%
X136500000Y-80100000D03*
X124000000Y-80100000D03*
%TO.P,SW7,2,2*%
%TO.N,Net-(SW2-C)*%
X136500000Y-85100000D03*
X124000000Y-85100000D03*
%TD*%
D14*
%TO.P,U2,1*%
%TO.N,N/C*%
X152950000Y-65630000D03*
%TO.P,U2,2*%
X150410000Y-65630000D03*
%TO.P,U2,3,GND*%
%TO.N,GND*%
X147870000Y-65630000D03*
%TO.P,U2,4*%
%TO.N,N/C*%
X145330000Y-65630000D03*
%TO.P,U2,5*%
X142790000Y-65630000D03*
%TO.P,U2,6*%
X140250000Y-65630000D03*
%TO.P,U2,7*%
X137710000Y-65630000D03*
%TO.P,U2,8*%
X135170000Y-65630000D03*
%TO.P,U2,9*%
X132630000Y-65630000D03*
%TO.P,U2,10*%
X130090000Y-65630000D03*
%TO.P,U2,11,SPI_DC*%
%TO.N,Net-(U2-SPI_DC)*%
X127550000Y-65630000D03*
%TO.P,U2,12,SPI_CS*%
%TO.N,Net-(U2-SPI_CS)*%
X125010000Y-65630000D03*
%TO.P,U2,13,GND*%
%TO.N,GND*%
X122470000Y-65630000D03*
%TO.P,U2,14,SPI_CLK*%
%TO.N,Net-(J2-CLK)*%
X119930000Y-65630000D03*
%TO.P,U2,15,SPI_DIN*%
%TO.N,Net-(J2-CMD)*%
X117390000Y-65630000D03*
%TO.P,U2,16,RST*%
%TO.N,Net-(U2-RST)*%
X114850000Y-65630000D03*
%TO.P,U2,17,BL*%
%TO.N,Net-(SW2-C)*%
X112310000Y-65630000D03*
%TO.P,U2,18,GND*%
%TO.N,GND*%
X109770000Y-65630000D03*
%TO.P,U2,19*%
%TO.N,N/C*%
X107230000Y-65630000D03*
%TO.P,U2,20*%
X104690000Y-65630000D03*
%TO.P,U2,21*%
X152950000Y-47850000D03*
%TO.P,U2,22*%
X150410000Y-47850000D03*
%TO.P,U2,23,GND*%
%TO.N,GND*%
X147870000Y-47850000D03*
%TO.P,U2,24*%
%TO.N,N/C*%
X145330000Y-47850000D03*
%TO.P,U2,25*%
X142790000Y-47850000D03*
%TO.P,U2,26*%
X140250000Y-47850000D03*
%TO.P,U2,27*%
X137710000Y-47850000D03*
%TO.P,U2,28,GND*%
%TO.N,GND*%
X135170000Y-47850000D03*
%TO.P,U2,29*%
%TO.N,N/C*%
X132630000Y-47850000D03*
%TO.P,U2,30*%
X130090000Y-47850000D03*
%TO.P,U2,31*%
X127550000Y-47850000D03*
%TO.P,U2,32*%
X125010000Y-47850000D03*
%TO.P,U2,33,GND*%
%TO.N,GND*%
X122470000Y-47850000D03*
%TO.P,U2,34*%
%TO.N,N/C*%
X119930000Y-47850000D03*
%TO.P,U2,35*%
X117390000Y-47850000D03*
%TO.P,U2,36*%
X114850000Y-47850000D03*
%TO.P,U2,37*%
X112310000Y-47850000D03*
%TO.P,U2,38,GND*%
%TO.N,GND*%
X109770000Y-47850000D03*
%TO.P,U2,39*%
%TO.N,N/C*%
X107230000Y-47850000D03*
%TO.P,U2,40*%
X104690000Y-47850000D03*
%TD*%
D30*
%TO.P,SW4,1,1*%
%TO.N,Net-(U5-IO0_3)*%
X136500000Y-111550000D03*
X124000000Y-111550000D03*
%TO.P,SW4,2,2*%
%TO.N,Net-(SW2-C)*%
X136500000Y-116550000D03*
X124000000Y-116550000D03*
%TD*%
%TO.P,SW3,1,1*%
%TO.N,Net-(U5-IO0_1)*%
X136500000Y-96000000D03*
X124000000Y-96000000D03*
%TO.P,SW3,2,2*%
%TO.N,Net-(SW2-C)*%
X136500000Y-101000000D03*
X124000000Y-101000000D03*
%TD*%
D31*
%TO.P,SW8,A,A*%
%TO.N,Net-(U5-IO0_5)*%
X150250000Y-129350000D03*
%TO.P,SW8,B,B*%
%TO.N,GND*%
X145250000Y-129350000D03*
%TO.P,SW8,C,C*%
%TO.N,Net-(U5-IO0_6)*%
X147750000Y-129350000D03*
%TO.P,SW8,MH1*%
%TO.N,N/C*%
X150250000Y-114850000D03*
%TO.P,SW8,MH2*%
X145250000Y-114850000D03*
D32*
%TO.P,SW8,MH3*%
X153350000Y-121850000D03*
%TO.P,SW8,MH4*%
X142150000Y-121850000D03*
%TD*%
D30*
%TO.P,SW5,1,1*%
%TO.N,Net-(U5-IO0_4)*%
X120000000Y-96100000D03*
X107500000Y-96100000D03*
%TO.P,SW5,2,2*%
%TO.N,Net-(SW2-C)*%
X120000000Y-101100000D03*
X107500000Y-101100000D03*
%TD*%
%TO.P,SW6,1,1*%
%TO.N,Net-(U5-IO0_2)*%
X153000000Y-96100000D03*
X140500000Y-96100000D03*
%TO.P,SW6,2,2*%
%TO.N,Net-(SW2-C)*%
X153000000Y-101100000D03*
X140500000Y-101100000D03*
%TD*%
D33*
%TO.N,GND*%
X105750000Y-125250000D03*
X114500000Y-122750000D03*
X108750000Y-127000000D03*
%TO.N,Net-(J2-CMD)*%
X105500000Y-119750000D03*
%TO.N,Net-(U1-GPIO5_A4_D4_SDA)*%
X118000000Y-116750000D03*
%TO.N,Net-(U1-CHIP_EN)*%
X106000000Y-110250000D03*
X111811125Y-127811125D03*
%TO.N,Net-(U1-BAT)*%
X114250000Y-121000000D03*
%TO.N,GND*%
X137214878Y-74035122D03*
X139500000Y-84000000D03*
X119174265Y-71174265D03*
X139500000Y-88500000D03*
X153500000Y-85000000D03*
X148000000Y-85000000D03*
X118000000Y-52500000D03*
X136250000Y-78250000D03*
X132500000Y-86500000D03*
X109500000Y-53500000D03*
X148000000Y-83000000D03*
X142000000Y-71500000D03*
X113500000Y-71000000D03*
X124500000Y-71000000D03*
X148000000Y-88500000D03*
%TO.N,Net-(J2-DAT3{slash}CD)*%
X119000000Y-68500000D03*
X116500000Y-71000000D03*
%TO.N,Net-(J2-CLK)*%
X108575000Y-54275000D03*
X114752744Y-82072988D03*
%TO.N,Net-(SW2-C)*%
X111500000Y-79500000D03*
X126500000Y-61500000D03*
%TO.N,Net-(U1-GPIO5_A4_D4_SDA)*%
X123000000Y-73000000D03*
%TO.N,Net-(U1-GPIO6_A5_D5_SCL)*%
X121250000Y-114250000D03*
X123400243Y-78079999D03*
X122500000Y-75420000D03*
%TO.N,Net-(U3-OUTR)*%
X138500000Y-74500000D03*
X139000000Y-76000000D03*
%TO.N,Net-(U5-IO0_6)*%
X112500000Y-78500000D03*
%TO.N,Net-(U5-IO0_5)*%
X108500000Y-80000000D03*
X113000000Y-75390000D03*
%TO.N,Net-(U5-IO0_3)*%
X116500000Y-75000000D03*
%TO.N,Net-(U5-IO0_4)*%
X117500000Y-76500000D03*
%TO.N,Net-(U5-IO0_2)*%
X117065687Y-74434313D03*
%TO.N,Net-(U2-SPI_CS)*%
X123500000Y-76000000D03*
%TO.N,Net-(U5-IO0_0)*%
X117000000Y-72500000D03*
%TO.N,Net-(U2-SPI_DC)*%
X118500000Y-72000000D03*
%TO.N,Net-(U1-GPIO4_A3_D3)*%
X121750000Y-119500000D03*
X136074197Y-109574197D03*
%TO.N,Net-(U1-GPIO1_A0_D0)*%
X122500000Y-121000000D03*
X121500000Y-127000000D03*
%TO.N,Net-(U2-RST)*%
X125000000Y-76500000D03*
%TO.N,Net-(U5-IO0_7)*%
X129150000Y-76850000D03*
X116000000Y-77500000D03*
%TO.N,Net-(U1-BAT)*%
X102000000Y-47500000D03*
%TD*%
D34*
%TO.N,GND*%
X114500000Y-122750000D02*
X116028750Y-122750000D01*
X105350250Y-125649750D02*
X103580500Y-125649750D01*
X105750000Y-125250000D02*
X105350250Y-125649750D01*
X108750000Y-127000000D02*
X110082250Y-127000000D01*
X110082250Y-127000000D02*
X110420500Y-126661750D01*
X116028750Y-122750000D02*
X116135500Y-122856750D01*
%TO.N,Net-(J2-VDD)*%
X103500000Y-108750000D02*
X105680000Y-108750000D01*
X103580500Y-123109750D02*
X104390250Y-123109750D01*
%TO.N,Net-(J2-CMD)*%
X105500000Y-119750000D02*
X104400250Y-119750000D01*
X104400250Y-119750000D02*
X103580500Y-120569750D01*
%TO.N,Net-(U1-GPIO5_A4_D4_SDA)*%
X118465750Y-116750000D02*
X119745500Y-118029750D01*
X118000000Y-116750000D02*
X118465750Y-116750000D01*
%TO.N,Net-(U1-GPIO6_A5_D5_SCL)*%
X120985250Y-114250000D02*
X119745500Y-115489750D01*
X121250000Y-114250000D02*
X120985250Y-114250000D01*
%TO.N,Net-(U1-GPIO2_A1_D1)*%
X119745500Y-125649750D02*
X119850250Y-125649750D01*
%TO.N,Net-(U1-GPIO4_A3_D3)*%
X120815250Y-119500000D02*
X119745500Y-120569750D01*
%TO.N,Net-(U1-GPIO1_A0_D0)*%
X120935250Y-127000000D02*
X119745500Y-128189750D01*
X121500000Y-127000000D02*
X120935250Y-127000000D01*
%TO.N,Net-(U1-CHIP_EN)*%
X106320000Y-109930000D02*
X106000000Y-110250000D01*
X106320000Y-108750000D02*
X106320000Y-109930000D01*
X111811125Y-127811125D02*
X112960500Y-126661750D01*
%TO.N,Net-(U1-BAT)*%
X114250000Y-121000000D02*
X116087250Y-121000000D01*
X116087250Y-121000000D02*
X116135500Y-120951750D01*
%TO.N,Net-(SW2-C)*%
X144710000Y-39000000D02*
X139000000Y-44710000D01*
X139000000Y-44710000D02*
X139000000Y-49000000D01*
X139000000Y-49000000D02*
X126500000Y-61500000D01*
%TO.N,Net-(J2-VDD)*%
X141689000Y-44561000D02*
X141689000Y-47974000D01*
X141689000Y-44561000D02*
X147250000Y-39000000D01*
%TO.N,Net-(J1-Pin_1)*%
X102500000Y-43040000D02*
X124560000Y-43040000D01*
X124560000Y-43040000D02*
X127250000Y-40350000D01*
%TO.N,Net-(U1-BAT)*%
X102000000Y-47500000D02*
X102000000Y-46080000D01*
X102000000Y-46080000D02*
X102500000Y-45580000D01*
%TO.N,GND*%
X148000000Y-88500000D02*
X146837500Y-88500000D01*
X137500000Y-74680000D02*
X137500000Y-74320244D01*
X146687500Y-83000000D02*
X146612500Y-83075000D01*
X152250000Y-86350000D02*
X152250000Y-86250000D01*
X136250122Y-74035122D02*
X135965000Y-73750000D01*
X153185000Y-85000000D02*
X152250000Y-84065000D01*
X120000000Y-72000000D02*
X120425000Y-72000000D01*
X124170000Y-70670000D02*
X124500000Y-71000000D01*
X117375000Y-51875000D02*
X118000000Y-52500000D01*
X148640000Y-85640000D02*
X148000000Y-85000000D01*
X118905000Y-55030000D02*
X118905000Y-53405000D01*
X109175000Y-53175000D02*
X109500000Y-53500000D01*
X119436500Y-71436500D02*
X119436500Y-71568870D01*
X137500000Y-74320244D02*
X137214878Y-74035122D01*
X140975000Y-71000000D02*
X141500000Y-71000000D01*
X139180000Y-80389103D02*
X137040897Y-78250000D01*
X148000000Y-83000000D02*
X146687500Y-83000000D01*
X131750000Y-86170000D02*
X132170000Y-86170000D01*
X114750000Y-71300000D02*
X113800000Y-71300000D01*
X113800000Y-71300000D02*
X113500000Y-71000000D01*
X119174265Y-71174265D02*
X119436500Y-71436500D01*
X113850000Y-70650000D02*
X113500000Y-71000000D01*
X149250000Y-83325000D02*
X148325000Y-83325000D01*
X146637500Y-85000000D02*
X146612500Y-85025000D01*
X148000000Y-85000000D02*
X146637500Y-85000000D01*
X140887500Y-83725000D02*
X139775000Y-83725000D01*
X139180000Y-80680000D02*
X139180000Y-80389103D01*
X149500000Y-85640000D02*
X148640000Y-85640000D01*
X140662500Y-88500000D02*
X140887500Y-88275000D01*
X132170000Y-86170000D02*
X132500000Y-86500000D01*
X152250000Y-86250000D02*
X153500000Y-85000000D01*
X107125000Y-53175000D02*
X109175000Y-53175000D01*
X119801000Y-71801000D02*
X120000000Y-72000000D01*
X139775000Y-83725000D02*
X139500000Y-84000000D01*
X148325000Y-83325000D02*
X148000000Y-83000000D01*
X118905000Y-53405000D02*
X118000000Y-52500000D01*
X120425000Y-72000000D02*
X120475000Y-71950000D01*
X141500000Y-71000000D02*
X142000000Y-71500000D01*
X115975000Y-51875000D02*
X117375000Y-51875000D01*
X137040897Y-78250000D02*
X136250000Y-78250000D01*
X123405000Y-70670000D02*
X124170000Y-70670000D01*
X137214878Y-74035122D02*
X136250122Y-74035122D01*
X153500000Y-85000000D02*
X153185000Y-85000000D01*
X114750000Y-70650000D02*
X113850000Y-70650000D01*
X146837500Y-88500000D02*
X146612500Y-88275000D01*
X119668630Y-71801000D02*
X119801000Y-71801000D01*
X119436500Y-71568870D02*
X119668630Y-71801000D01*
X139500000Y-88500000D02*
X140662500Y-88500000D01*
%TO.N,Net-(J2-VDD)*%
X129375000Y-79375000D02*
X129375000Y-78910000D01*
X101576000Y-121105250D02*
X101576000Y-110674000D01*
X126449000Y-76000000D02*
X126449000Y-63214000D01*
X131500000Y-89000000D02*
X130500000Y-89000000D01*
X129375000Y-79375000D02*
X126449000Y-76449000D01*
X127430000Y-75019000D02*
X127430000Y-74000000D01*
X126449000Y-76449000D02*
X126449000Y-76000000D01*
X129500000Y-79500000D02*
X129375000Y-79375000D01*
X124225000Y-74225000D02*
X123200000Y-74225000D01*
X132500000Y-89000000D02*
X131500000Y-89000000D01*
X139820000Y-80161586D02*
X139820000Y-80680000D01*
X129500000Y-79500000D02*
X124225000Y-74225000D01*
X129375000Y-78910000D02*
X134535000Y-73750000D01*
X130500000Y-89000000D02*
X129500000Y-90000000D01*
X129500000Y-90000000D02*
X129500000Y-79500000D01*
X126449000Y-63214000D02*
X141689000Y-47974000D01*
X139820000Y-81357500D02*
X140887500Y-82425000D01*
X138025000Y-86975000D02*
X135500000Y-89500000D01*
X101576000Y-110674000D02*
X103500000Y-108750000D01*
X129500000Y-98000000D02*
X129500000Y-90000000D01*
X107370000Y-55670000D02*
X118905000Y-55670000D01*
X126449000Y-63214000D02*
X118905000Y-55670000D01*
X126449000Y-76000000D02*
X127430000Y-75019000D01*
X134535000Y-74876586D02*
X139820000Y-80161586D01*
X139820000Y-80680000D02*
X139820000Y-81357500D01*
X134535000Y-73750000D02*
X134535000Y-74876586D01*
X107370000Y-55670000D02*
X107125000Y-55425000D01*
X123200000Y-74225000D02*
X122975000Y-74000000D01*
X124225000Y-74225000D02*
X124225000Y-72350000D01*
X133000000Y-89500000D02*
X132500000Y-89000000D01*
X135500000Y-89500000D02*
X133000000Y-89500000D01*
X131000000Y-89500000D02*
X131500000Y-89000000D01*
X131000000Y-89570000D02*
X131000000Y-89500000D01*
X103580500Y-123109750D02*
X101576000Y-121105250D01*
X104390250Y-123109750D02*
X129500000Y-98000000D01*
X140887500Y-86975000D02*
X138025000Y-86975000D01*
%TO.N,Net-(J2-CMD)*%
X108285000Y-56525000D02*
X117390000Y-65630000D01*
X107125000Y-56525000D02*
X108285000Y-56525000D01*
%TO.N,Net-(J2-DAT3{slash}CD)*%
X118702950Y-68500000D02*
X119000000Y-68500000D01*
X116500000Y-71000000D02*
X119400000Y-73900000D01*
X116289000Y-66086050D02*
X118702950Y-68500000D01*
X108675000Y-57675000D02*
X116289000Y-65289000D01*
X119400000Y-73900000D02*
X120475000Y-73900000D01*
X107125000Y-57675000D02*
X108675000Y-57675000D01*
X116289000Y-65289000D02*
X116289000Y-66086050D01*
%TO.N,Net-(J2-CLK)*%
X108575000Y-54275000D02*
X107125000Y-54275000D01*
X115000000Y-82320244D02*
X115000000Y-104070250D01*
X114752744Y-82072988D02*
X115000000Y-82320244D01*
X115000000Y-104070250D02*
X103580500Y-115489750D01*
%TO.N,Net-(J2-DAT0)*%
X108821659Y-80500000D02*
X108740659Y-80581000D01*
X115601000Y-106009250D02*
X115601000Y-82101000D01*
X106074000Y-52326000D02*
X106375000Y-52025000D01*
X108178341Y-80500000D02*
X108150057Y-80500000D01*
X103580500Y-118029750D02*
X115601000Y-106009250D01*
X106074000Y-78423943D02*
X106074000Y-52326000D01*
X108150057Y-80500000D02*
X106074000Y-78423943D01*
X115601000Y-82101000D02*
X114000000Y-80500000D01*
X106375000Y-52025000D02*
X107125000Y-52025000D01*
X108259341Y-80581000D02*
X108178341Y-80500000D01*
X108740659Y-80581000D02*
X108259341Y-80581000D01*
X114000000Y-80500000D02*
X108821659Y-80500000D01*
%TO.N,Net-(U3-AGND)*%
X131930000Y-91000000D02*
X132790000Y-90140000D01*
X138174870Y-87625000D02*
X135659870Y-90140000D01*
X132790000Y-90140000D02*
X135500000Y-90140000D01*
X140887500Y-87625000D02*
X138174870Y-87625000D01*
X131000000Y-91000000D02*
X131930000Y-91000000D01*
X135659870Y-90140000D02*
X135500000Y-90140000D01*
%TO.N,Net-(U3-VNEG)*%
X134510819Y-85530000D02*
X135331819Y-86351000D01*
X138824001Y-86351000D02*
X140150001Y-85025000D01*
X131750000Y-85530000D02*
X134510819Y-85530000D01*
X140150001Y-85025000D02*
X140887500Y-85025000D01*
X135331819Y-86351000D02*
X138824001Y-86351000D01*
%TO.N,Net-(U3-CAPM)*%
X139740659Y-84581000D02*
X139259341Y-84581000D01*
X139259341Y-84581000D02*
X138750000Y-84071659D01*
X140887500Y-84375000D02*
X139946659Y-84375000D01*
X138750000Y-84071659D02*
X138750000Y-82070000D01*
X139946659Y-84375000D02*
X139740659Y-84581000D01*
%TO.N,Net-(U3-CAPP)*%
X138750000Y-81430000D02*
X138949999Y-81430000D01*
X139430000Y-82246586D02*
X140258414Y-83075000D01*
X138949999Y-81430000D02*
X139430000Y-81910001D01*
X139430000Y-81910001D02*
X139430000Y-82246586D01*
X140258414Y-83075000D02*
X140887500Y-83075000D01*
%TO.N,Net-(U3-LDOO)*%
X148225000Y-83725000D02*
X146612500Y-83725000D01*
X149500000Y-85000000D02*
X148225000Y-83725000D01*
X151015000Y-87780000D02*
X151015000Y-86315001D01*
X152250000Y-87780000D02*
X151015000Y-87780000D01*
X151015000Y-86315001D02*
X149699999Y-85000000D01*
X149699999Y-85000000D02*
X149500000Y-85000000D01*
%TO.N,Net-(U3-DVDD)*%
X152250000Y-82635000D02*
X149300000Y-82635000D01*
X149300000Y-82635000D02*
X149250000Y-82685000D01*
X146638500Y-82399000D02*
X146612500Y-82425000D01*
X148964000Y-82399000D02*
X146638500Y-82399000D01*
X149250000Y-82685000D02*
X148964000Y-82399000D01*
%TO.N,Net-(SW2-C)*%
X120475000Y-70000000D02*
X123375000Y-70000000D01*
X116680000Y-70000000D02*
X120475000Y-70000000D01*
X111500000Y-79500000D02*
X110000000Y-79500000D01*
X108500000Y-77900001D02*
X109450000Y-76950000D01*
X112310000Y-65630000D02*
X112310000Y-74290000D01*
X112310000Y-65630000D02*
X116680000Y-70000000D01*
X112310000Y-74290000D02*
X111250000Y-75350000D01*
X109450000Y-78950000D02*
X109450000Y-76950000D01*
X123375000Y-70000000D02*
X123405000Y-70030000D01*
X109450000Y-76950000D02*
X111050001Y-75350000D01*
X108500000Y-77900001D02*
X108500000Y-78525000D01*
X111050001Y-75350000D02*
X111250000Y-75350000D01*
X110000000Y-79500000D02*
X109450000Y-78950000D01*
%TO.N,Net-(U3-OUTL)*%
X141926000Y-81176000D02*
X136570000Y-75820000D01*
X141624999Y-85675000D02*
X141926000Y-85373999D01*
X141926000Y-85373999D02*
X141926000Y-81176000D01*
X136570000Y-75820000D02*
X136250000Y-75820000D01*
X140887500Y-85675000D02*
X141624999Y-85675000D01*
%TO.N,Net-(U1-GPIO5_A4_D4_SDA)*%
X120475000Y-70650000D02*
X121885000Y-70650000D01*
X123585000Y-72415000D02*
X123000000Y-73000000D01*
X123585000Y-72350000D02*
X123585000Y-72415000D01*
X121885000Y-70650000D02*
X123585000Y-72350000D01*
%TO.N,Net-(U1-GPIO6_A5_D5_SCL)*%
X122500000Y-75420000D02*
X122335000Y-75255000D01*
X121212499Y-71300000D02*
X122335000Y-72422501D01*
X122335000Y-72422501D02*
X122335000Y-74000000D01*
X120475000Y-71300000D02*
X121212499Y-71300000D01*
X122335000Y-75255000D02*
X122335000Y-74000000D01*
%TO.N,Net-(U3-OUTR)*%
X137000000Y-73000000D02*
X138500000Y-74500000D01*
X142327000Y-85622999D02*
X141624999Y-86325000D01*
X141624999Y-86325000D02*
X140887500Y-86325000D01*
X142327000Y-79327000D02*
X142327000Y-85622999D01*
X137000000Y-71000000D02*
X137000000Y-73000000D01*
X139000000Y-76000000D02*
X142327000Y-79327000D01*
%TO.N,Net-(U5-IO0_6)*%
X110948816Y-75990000D02*
X111250000Y-75990000D01*
X110500000Y-76500000D02*
X110500000Y-76438816D01*
X110500000Y-76438816D02*
X110948816Y-75990000D01*
X112500000Y-78500000D02*
X110500000Y-76500000D01*
X114750000Y-75850000D02*
X114610000Y-75990000D01*
X114610000Y-75990000D02*
X111250000Y-75990000D01*
%TO.N,Net-(U5-IO0_5)*%
X113190000Y-75200000D02*
X113000000Y-75390000D01*
X108500000Y-80000000D02*
X108500000Y-79165000D01*
X114750000Y-75200000D02*
X113190000Y-75200000D01*
%TO.N,Net-(U5-IO0_1)*%
X118340410Y-85840410D02*
X124000000Y-91500000D01*
X114750000Y-72600000D02*
X116100000Y-72600000D01*
X116100000Y-72600000D02*
X118340410Y-74840410D01*
X124000000Y-91500000D02*
X124000000Y-96000000D01*
X118340410Y-74840410D02*
X118340410Y-85840410D01*
%TO.N,Net-(U5-IO0_3)*%
X116500000Y-74912501D02*
X116500000Y-75000000D01*
X114750000Y-73900000D02*
X115487499Y-73900000D01*
X115487499Y-73900000D02*
X116500000Y-74912501D01*
%TO.N,Net-(U5-IO0_4)*%
X117500000Y-76500000D02*
X117000000Y-76500000D01*
X115487499Y-74550000D02*
X114750000Y-74550000D01*
X115788500Y-75288500D02*
X115788500Y-74851001D01*
X117000000Y-76500000D02*
X115788500Y-75288500D01*
X115788500Y-74851001D02*
X115487499Y-74550000D01*
%TO.N,Net-(U5-IO0_2)*%
X115881374Y-73250000D02*
X117065687Y-74434313D01*
X114750000Y-73250000D02*
X115881374Y-73250000D01*
%TO.N,Net-(U2-SPI_CS)*%
X120475000Y-73250000D02*
X121250000Y-73250000D01*
X121250000Y-73250000D02*
X121804000Y-73804000D01*
X122000000Y-76000000D02*
X123500000Y-76000000D01*
X121804000Y-75804000D02*
X122000000Y-76000000D01*
X121804000Y-73804000D02*
X121804000Y-75804000D01*
%TO.N,Net-(U5-IO0_0)*%
X116450000Y-71950000D02*
X117000000Y-72500000D01*
X114750000Y-71950000D02*
X116450000Y-71950000D01*
%TO.N,Net-(U2-SPI_DC)*%
X120475000Y-72600000D02*
X120326000Y-72749000D01*
X119249000Y-72749000D02*
X118500000Y-72000000D01*
X120326000Y-72749000D02*
X119249000Y-72749000D01*
%TO.N,Net-(U1-GPIO2_A1_D1)*%
X119850250Y-125649750D02*
X135181000Y-110319000D01*
X145875001Y-86975000D02*
X146612500Y-86975000D01*
X136681000Y-110319000D02*
X144500000Y-102500000D01*
X135181000Y-110319000D02*
X136681000Y-110319000D01*
X144500000Y-102500000D02*
X144500000Y-88350001D01*
X144500000Y-88350001D02*
X145875001Y-86975000D01*
%TO.N,Net-(U1-GPIO3_A2_D2)*%
X145024705Y-86525300D02*
X145169731Y-86380270D01*
X143893333Y-86242456D02*
X143978187Y-86157603D01*
X121718400Y-123109750D02*
X143664075Y-101164075D01*
X144261029Y-86949561D02*
X143893334Y-86581866D01*
X145875001Y-85675000D02*
X146612500Y-85675000D01*
X119745500Y-123109750D02*
X121718400Y-123109750D01*
X143664075Y-101164075D02*
X143664075Y-87885926D01*
X144317599Y-86157603D02*
X144685295Y-86525299D01*
X145169731Y-86380270D02*
X145875001Y-85675000D01*
X143664075Y-87885926D02*
X144261028Y-87288973D01*
X144685295Y-86525299D02*
G75*
G03*
X145024705Y-86525300I169705J169699D01*
G01*
X143893334Y-86581866D02*
G75*
G02*
X143893372Y-86242496I169666J169666D01*
G01*
X143978187Y-86157603D02*
G75*
G02*
X144317599Y-86157603I169706J-169708D01*
G01*
X144261028Y-87288973D02*
G75*
G03*
X144260996Y-86949594I-169728J169673D01*
G01*
%TO.N,Net-(U1-GPIO4_A3_D3)*%
X146612500Y-86325000D02*
X147241586Y-86325000D01*
X121750000Y-119500000D02*
X120815250Y-119500000D01*
X145983414Y-86325000D02*
X144045075Y-88263339D01*
X144045075Y-88263339D02*
X144045075Y-101603319D01*
X144045075Y-101603319D02*
X136074197Y-109574197D01*
X147241586Y-86325000D02*
X145983414Y-86325000D01*
%TO.N,Net-(U1-GPIO1_A0_D0)*%
X143263075Y-85736925D02*
X143263075Y-100997975D01*
X144625000Y-84375000D02*
X143263075Y-85736925D01*
X123261050Y-121000000D02*
X122500000Y-121000000D01*
X123261050Y-121000000D02*
X143263075Y-100997975D01*
X146612500Y-84375000D02*
X144625000Y-84375000D01*
%TO.N,Net-(U2-RST)*%
X125000000Y-76500000D02*
X124350000Y-77150000D01*
X124350000Y-77150000D02*
X120475000Y-77150000D01*
%TO.N,Net-(C13-Pad1)*%
X137160001Y-75180000D02*
X136250000Y-75180000D01*
X143500000Y-79500000D02*
X139170000Y-75170000D01*
X145600000Y-79500000D02*
X143500000Y-79500000D01*
X137500000Y-75320000D02*
X137300001Y-75320000D01*
X139170000Y-75170000D02*
X138500000Y-75170000D01*
X145750000Y-79350000D02*
X145600000Y-79500000D01*
X138350000Y-75320000D02*
X137500000Y-75320000D01*
X137300001Y-75320000D02*
X137160001Y-75180000D01*
X138500000Y-75170000D02*
X138350000Y-75320000D01*
%TO.N,Net-(C14-Pad1)*%
X137640000Y-71000000D02*
X140335000Y-71000000D01*
X141785001Y-69350000D02*
X140335000Y-70800001D01*
X145750000Y-69350000D02*
X141785001Y-69350000D01*
X140335000Y-70800001D02*
X140335000Y-71000000D01*
%TO.N,Net-(U5-IO0_7)*%
X128070000Y-74000000D02*
X128070000Y-75770000D01*
X116000000Y-77500000D02*
X116000000Y-77000000D01*
X116000000Y-77000000D02*
X115500000Y-76500000D01*
X115500000Y-76500000D02*
X114750000Y-76500000D01*
X128070000Y-75770000D02*
X129150000Y-76850000D01*
%TD*%
M02*
