%TF.GenerationSoftware,KiCad,Pcbnew,9.0.7-1.fc43*%
%TF.CreationDate,2026-03-06T09:11:31+10:30*%
%TF.ProjectId,Simple MP3 Player,53696d70-6c65-4204-9d50-3320506c6179,rev?*%
%TF.SameCoordinates,Original*%
%TF.FileFunction,Legend,Top*%
%TF.FilePolarity,Positive*%
%FSLAX46Y46*%
G04 Gerber Fmt 4.6, Leading zero omitted, Abs format (unit mm)*
G04 Created by KiCad (PCBNEW 9.0.7-1.fc43) date 2026-03-06 09:11:31*
%MOMM*%
%LPD*%
G01*
G04 APERTURE LIST*
%ADD10C,0.150000*%
%ADD11C,0.106680*%
%ADD12C,0.100000*%
%ADD13C,0.127000*%
%ADD14C,0.504000*%
%ADD15C,0.120000*%
G04 APERTURE END LIST*
D10*
X105833333Y-108154819D02*
X105500000Y-107678628D01*
X105261905Y-108154819D02*
X105261905Y-107154819D01*
X105261905Y-107154819D02*
X105642857Y-107154819D01*
X105642857Y-107154819D02*
X105738095Y-107202438D01*
X105738095Y-107202438D02*
X105785714Y-107250057D01*
X105785714Y-107250057D02*
X105833333Y-107345295D01*
X105833333Y-107345295D02*
X105833333Y-107488152D01*
X105833333Y-107488152D02*
X105785714Y-107583390D01*
X105785714Y-107583390D02*
X105738095Y-107631009D01*
X105738095Y-107631009D02*
X105642857Y-107678628D01*
X105642857Y-107678628D02*
X105261905Y-107678628D01*
X106690476Y-107154819D02*
X106500000Y-107154819D01*
X106500000Y-107154819D02*
X106404762Y-107202438D01*
X106404762Y-107202438D02*
X106357143Y-107250057D01*
X106357143Y-107250057D02*
X106261905Y-107392914D01*
X106261905Y-107392914D02*
X106214286Y-107583390D01*
X106214286Y-107583390D02*
X106214286Y-107964342D01*
X106214286Y-107964342D02*
X106261905Y-108059580D01*
X106261905Y-108059580D02*
X106309524Y-108107200D01*
X106309524Y-108107200D02*
X106404762Y-108154819D01*
X106404762Y-108154819D02*
X106595238Y-108154819D01*
X106595238Y-108154819D02*
X106690476Y-108107200D01*
X106690476Y-108107200D02*
X106738095Y-108059580D01*
X106738095Y-108059580D02*
X106785714Y-107964342D01*
X106785714Y-107964342D02*
X106785714Y-107726247D01*
X106785714Y-107726247D02*
X106738095Y-107631009D01*
X106738095Y-107631009D02*
X106690476Y-107583390D01*
X106690476Y-107583390D02*
X106595238Y-107535771D01*
X106595238Y-107535771D02*
X106404762Y-107535771D01*
X106404762Y-107535771D02*
X106309524Y-107583390D01*
X106309524Y-107583390D02*
X106261905Y-107631009D01*
X106261905Y-107631009D02*
X106214286Y-107726247D01*
D11*
X121756450Y-128616391D02*
X121756450Y-129249698D01*
X121756450Y-129249698D02*
X121793704Y-129324204D01*
X121793704Y-129324204D02*
X121830957Y-129361458D01*
X121830957Y-129361458D02*
X121905464Y-129398711D01*
X121905464Y-129398711D02*
X122054477Y-129398711D01*
X122054477Y-129398711D02*
X122128984Y-129361458D01*
X122128984Y-129361458D02*
X122166237Y-129324204D01*
X122166237Y-129324204D02*
X122203490Y-129249698D01*
X122203490Y-129249698D02*
X122203490Y-128616391D01*
X122985810Y-129398711D02*
X122538770Y-129398711D01*
X122762290Y-129398711D02*
X122762290Y-128616391D01*
X122762290Y-128616391D02*
X122687783Y-128728151D01*
X122687783Y-128728151D02*
X122613277Y-128802658D01*
X122613277Y-128802658D02*
X122538770Y-128839911D01*
D10*
X145916667Y-36867200D02*
X146059524Y-36914819D01*
X146059524Y-36914819D02*
X146297619Y-36914819D01*
X146297619Y-36914819D02*
X146392857Y-36867200D01*
X146392857Y-36867200D02*
X146440476Y-36819580D01*
X146440476Y-36819580D02*
X146488095Y-36724342D01*
X146488095Y-36724342D02*
X146488095Y-36629104D01*
X146488095Y-36629104D02*
X146440476Y-36533866D01*
X146440476Y-36533866D02*
X146392857Y-36486247D01*
X146392857Y-36486247D02*
X146297619Y-36438628D01*
X146297619Y-36438628D02*
X146107143Y-36391009D01*
X146107143Y-36391009D02*
X146011905Y-36343390D01*
X146011905Y-36343390D02*
X145964286Y-36295771D01*
X145964286Y-36295771D02*
X145916667Y-36200533D01*
X145916667Y-36200533D02*
X145916667Y-36105295D01*
X145916667Y-36105295D02*
X145964286Y-36010057D01*
X145964286Y-36010057D02*
X146011905Y-35962438D01*
X146011905Y-35962438D02*
X146107143Y-35914819D01*
X146107143Y-35914819D02*
X146345238Y-35914819D01*
X146345238Y-35914819D02*
X146488095Y-35962438D01*
X146821429Y-35914819D02*
X147059524Y-36914819D01*
X147059524Y-36914819D02*
X147250000Y-36200533D01*
X147250000Y-36200533D02*
X147440476Y-36914819D01*
X147440476Y-36914819D02*
X147678572Y-35914819D01*
X148011905Y-36010057D02*
X148059524Y-35962438D01*
X148059524Y-35962438D02*
X148154762Y-35914819D01*
X148154762Y-35914819D02*
X148392857Y-35914819D01*
X148392857Y-35914819D02*
X148488095Y-35962438D01*
X148488095Y-35962438D02*
X148535714Y-36010057D01*
X148535714Y-36010057D02*
X148583333Y-36105295D01*
X148583333Y-36105295D02*
X148583333Y-36200533D01*
X148583333Y-36200533D02*
X148535714Y-36343390D01*
X148535714Y-36343390D02*
X147964286Y-36914819D01*
X147964286Y-36914819D02*
X148583333Y-36914819D01*
X110654819Y-75836666D02*
X110178628Y-76169999D01*
X110654819Y-76408094D02*
X109654819Y-76408094D01*
X109654819Y-76408094D02*
X109654819Y-76027142D01*
X109654819Y-76027142D02*
X109702438Y-75931904D01*
X109702438Y-75931904D02*
X109750057Y-75884285D01*
X109750057Y-75884285D02*
X109845295Y-75836666D01*
X109845295Y-75836666D02*
X109988152Y-75836666D01*
X109988152Y-75836666D02*
X110083390Y-75884285D01*
X110083390Y-75884285D02*
X110131009Y-75931904D01*
X110131009Y-75931904D02*
X110178628Y-76027142D01*
X110178628Y-76027142D02*
X110178628Y-76408094D01*
X109654819Y-75503332D02*
X109654819Y-74836666D01*
X109654819Y-74836666D02*
X110654819Y-75265237D01*
X116850595Y-68179819D02*
X116850595Y-68989342D01*
X116850595Y-68989342D02*
X116898214Y-69084580D01*
X116898214Y-69084580D02*
X116945833Y-69132200D01*
X116945833Y-69132200D02*
X117041071Y-69179819D01*
X117041071Y-69179819D02*
X117231547Y-69179819D01*
X117231547Y-69179819D02*
X117326785Y-69132200D01*
X117326785Y-69132200D02*
X117374404Y-69084580D01*
X117374404Y-69084580D02*
X117422023Y-68989342D01*
X117422023Y-68989342D02*
X117422023Y-68179819D01*
X118374404Y-68179819D02*
X117898214Y-68179819D01*
X117898214Y-68179819D02*
X117850595Y-68656009D01*
X117850595Y-68656009D02*
X117898214Y-68608390D01*
X117898214Y-68608390D02*
X117993452Y-68560771D01*
X117993452Y-68560771D02*
X118231547Y-68560771D01*
X118231547Y-68560771D02*
X118326785Y-68608390D01*
X118326785Y-68608390D02*
X118374404Y-68656009D01*
X118374404Y-68656009D02*
X118422023Y-68751247D01*
X118422023Y-68751247D02*
X118422023Y-68989342D01*
X118422023Y-68989342D02*
X118374404Y-69084580D01*
X118374404Y-69084580D02*
X118326785Y-69132200D01*
X118326785Y-69132200D02*
X118231547Y-69179819D01*
X118231547Y-69179819D02*
X117993452Y-69179819D01*
X117993452Y-69179819D02*
X117898214Y-69132200D01*
X117898214Y-69132200D02*
X117850595Y-69084580D01*
X107904819Y-79011666D02*
X107428628Y-79344999D01*
X107904819Y-79583094D02*
X106904819Y-79583094D01*
X106904819Y-79583094D02*
X106904819Y-79202142D01*
X106904819Y-79202142D02*
X106952438Y-79106904D01*
X106952438Y-79106904D02*
X107000057Y-79059285D01*
X107000057Y-79059285D02*
X107095295Y-79011666D01*
X107095295Y-79011666D02*
X107238152Y-79011666D01*
X107238152Y-79011666D02*
X107333390Y-79059285D01*
X107333390Y-79059285D02*
X107381009Y-79106904D01*
X107381009Y-79106904D02*
X107428628Y-79202142D01*
X107428628Y-79202142D02*
X107428628Y-79583094D01*
X107333390Y-78440237D02*
X107285771Y-78535475D01*
X107285771Y-78535475D02*
X107238152Y-78583094D01*
X107238152Y-78583094D02*
X107142914Y-78630713D01*
X107142914Y-78630713D02*
X107095295Y-78630713D01*
X107095295Y-78630713D02*
X107000057Y-78583094D01*
X107000057Y-78583094D02*
X106952438Y-78535475D01*
X106952438Y-78535475D02*
X106904819Y-78440237D01*
X106904819Y-78440237D02*
X106904819Y-78249761D01*
X106904819Y-78249761D02*
X106952438Y-78154523D01*
X106952438Y-78154523D02*
X107000057Y-78106904D01*
X107000057Y-78106904D02*
X107095295Y-78059285D01*
X107095295Y-78059285D02*
X107142914Y-78059285D01*
X107142914Y-78059285D02*
X107238152Y-78106904D01*
X107238152Y-78106904D02*
X107285771Y-78154523D01*
X107285771Y-78154523D02*
X107333390Y-78249761D01*
X107333390Y-78249761D02*
X107333390Y-78440237D01*
X107333390Y-78440237D02*
X107381009Y-78535475D01*
X107381009Y-78535475D02*
X107428628Y-78583094D01*
X107428628Y-78583094D02*
X107523866Y-78630713D01*
X107523866Y-78630713D02*
X107714342Y-78630713D01*
X107714342Y-78630713D02*
X107809580Y-78583094D01*
X107809580Y-78583094D02*
X107857200Y-78535475D01*
X107857200Y-78535475D02*
X107904819Y-78440237D01*
X107904819Y-78440237D02*
X107904819Y-78249761D01*
X107904819Y-78249761D02*
X107857200Y-78154523D01*
X107857200Y-78154523D02*
X107809580Y-78106904D01*
X107809580Y-78106904D02*
X107714342Y-78059285D01*
X107714342Y-78059285D02*
X107523866Y-78059285D01*
X107523866Y-78059285D02*
X107428628Y-78106904D01*
X107428628Y-78106904D02*
X107381009Y-78154523D01*
X107381009Y-78154523D02*
X107333390Y-78249761D01*
X132879580Y-90451666D02*
X132927200Y-90499285D01*
X132927200Y-90499285D02*
X132974819Y-90642142D01*
X132974819Y-90642142D02*
X132974819Y-90737380D01*
X132974819Y-90737380D02*
X132927200Y-90880237D01*
X132927200Y-90880237D02*
X132831961Y-90975475D01*
X132831961Y-90975475D02*
X132736723Y-91023094D01*
X132736723Y-91023094D02*
X132546247Y-91070713D01*
X132546247Y-91070713D02*
X132403390Y-91070713D01*
X132403390Y-91070713D02*
X132212914Y-91023094D01*
X132212914Y-91023094D02*
X132117676Y-90975475D01*
X132117676Y-90975475D02*
X132022438Y-90880237D01*
X132022438Y-90880237D02*
X131974819Y-90737380D01*
X131974819Y-90737380D02*
X131974819Y-90642142D01*
X131974819Y-90642142D02*
X132022438Y-90499285D01*
X132022438Y-90499285D02*
X132070057Y-90451666D01*
X132308152Y-89594523D02*
X132974819Y-89594523D01*
X131927200Y-89832618D02*
X132641485Y-90070713D01*
X132641485Y-90070713D02*
X132641485Y-89451666D01*
X140159580Y-81916666D02*
X140207200Y-81964285D01*
X140207200Y-81964285D02*
X140254819Y-82107142D01*
X140254819Y-82107142D02*
X140254819Y-82202380D01*
X140254819Y-82202380D02*
X140207200Y-82345237D01*
X140207200Y-82345237D02*
X140111961Y-82440475D01*
X140111961Y-82440475D02*
X140016723Y-82488094D01*
X140016723Y-82488094D02*
X139826247Y-82535713D01*
X139826247Y-82535713D02*
X139683390Y-82535713D01*
X139683390Y-82535713D02*
X139492914Y-82488094D01*
X139492914Y-82488094D02*
X139397676Y-82440475D01*
X139397676Y-82440475D02*
X139302438Y-82345237D01*
X139302438Y-82345237D02*
X139254819Y-82202380D01*
X139254819Y-82202380D02*
X139254819Y-82107142D01*
X139254819Y-82107142D02*
X139302438Y-81964285D01*
X139302438Y-81964285D02*
X139350057Y-81916666D01*
X139683390Y-81345237D02*
X139635771Y-81440475D01*
X139635771Y-81440475D02*
X139588152Y-81488094D01*
X139588152Y-81488094D02*
X139492914Y-81535713D01*
X139492914Y-81535713D02*
X139445295Y-81535713D01*
X139445295Y-81535713D02*
X139350057Y-81488094D01*
X139350057Y-81488094D02*
X139302438Y-81440475D01*
X139302438Y-81440475D02*
X139254819Y-81345237D01*
X139254819Y-81345237D02*
X139254819Y-81154761D01*
X139254819Y-81154761D02*
X139302438Y-81059523D01*
X139302438Y-81059523D02*
X139350057Y-81011904D01*
X139350057Y-81011904D02*
X139445295Y-80964285D01*
X139445295Y-80964285D02*
X139492914Y-80964285D01*
X139492914Y-80964285D02*
X139588152Y-81011904D01*
X139588152Y-81011904D02*
X139635771Y-81059523D01*
X139635771Y-81059523D02*
X139683390Y-81154761D01*
X139683390Y-81154761D02*
X139683390Y-81345237D01*
X139683390Y-81345237D02*
X139731009Y-81440475D01*
X139731009Y-81440475D02*
X139778628Y-81488094D01*
X139778628Y-81488094D02*
X139873866Y-81535713D01*
X139873866Y-81535713D02*
X140064342Y-81535713D01*
X140064342Y-81535713D02*
X140159580Y-81488094D01*
X140159580Y-81488094D02*
X140207200Y-81440475D01*
X140207200Y-81440475D02*
X140254819Y-81345237D01*
X140254819Y-81345237D02*
X140254819Y-81154761D01*
X140254819Y-81154761D02*
X140207200Y-81059523D01*
X140207200Y-81059523D02*
X140159580Y-81011904D01*
X140159580Y-81011904D02*
X140064342Y-80964285D01*
X140064342Y-80964285D02*
X139873866Y-80964285D01*
X139873866Y-80964285D02*
X139778628Y-81011904D01*
X139778628Y-81011904D02*
X139731009Y-81059523D01*
X139731009Y-81059523D02*
X139683390Y-81154761D01*
X140012142Y-70309580D02*
X139964523Y-70357200D01*
X139964523Y-70357200D02*
X139821666Y-70404819D01*
X139821666Y-70404819D02*
X139726428Y-70404819D01*
X139726428Y-70404819D02*
X139583571Y-70357200D01*
X139583571Y-70357200D02*
X139488333Y-70261961D01*
X139488333Y-70261961D02*
X139440714Y-70166723D01*
X139440714Y-70166723D02*
X139393095Y-69976247D01*
X139393095Y-69976247D02*
X139393095Y-69833390D01*
X139393095Y-69833390D02*
X139440714Y-69642914D01*
X139440714Y-69642914D02*
X139488333Y-69547676D01*
X139488333Y-69547676D02*
X139583571Y-69452438D01*
X139583571Y-69452438D02*
X139726428Y-69404819D01*
X139726428Y-69404819D02*
X139821666Y-69404819D01*
X139821666Y-69404819D02*
X139964523Y-69452438D01*
X139964523Y-69452438D02*
X140012142Y-69500057D01*
X140964523Y-70404819D02*
X140393095Y-70404819D01*
X140678809Y-70404819D02*
X140678809Y-69404819D01*
X140678809Y-69404819D02*
X140583571Y-69547676D01*
X140583571Y-69547676D02*
X140488333Y-69642914D01*
X140488333Y-69642914D02*
X140393095Y-69690533D01*
X141821666Y-69738152D02*
X141821666Y-70404819D01*
X141583571Y-69357200D02*
X141345476Y-70071485D01*
X141345476Y-70071485D02*
X141964523Y-70071485D01*
X150859580Y-87666666D02*
X150907200Y-87714285D01*
X150907200Y-87714285D02*
X150954819Y-87857142D01*
X150954819Y-87857142D02*
X150954819Y-87952380D01*
X150954819Y-87952380D02*
X150907200Y-88095237D01*
X150907200Y-88095237D02*
X150811961Y-88190475D01*
X150811961Y-88190475D02*
X150716723Y-88238094D01*
X150716723Y-88238094D02*
X150526247Y-88285713D01*
X150526247Y-88285713D02*
X150383390Y-88285713D01*
X150383390Y-88285713D02*
X150192914Y-88238094D01*
X150192914Y-88238094D02*
X150097676Y-88190475D01*
X150097676Y-88190475D02*
X150002438Y-88095237D01*
X150002438Y-88095237D02*
X149954819Y-87952380D01*
X149954819Y-87952380D02*
X149954819Y-87857142D01*
X149954819Y-87857142D02*
X150002438Y-87714285D01*
X150002438Y-87714285D02*
X150050057Y-87666666D01*
X150954819Y-87190475D02*
X150954819Y-86999999D01*
X150954819Y-86999999D02*
X150907200Y-86904761D01*
X150907200Y-86904761D02*
X150859580Y-86857142D01*
X150859580Y-86857142D02*
X150716723Y-86761904D01*
X150716723Y-86761904D02*
X150526247Y-86714285D01*
X150526247Y-86714285D02*
X150145295Y-86714285D01*
X150145295Y-86714285D02*
X150050057Y-86761904D01*
X150050057Y-86761904D02*
X150002438Y-86809523D01*
X150002438Y-86809523D02*
X149954819Y-86904761D01*
X149954819Y-86904761D02*
X149954819Y-87095237D01*
X149954819Y-87095237D02*
X150002438Y-87190475D01*
X150002438Y-87190475D02*
X150050057Y-87238094D01*
X150050057Y-87238094D02*
X150145295Y-87285713D01*
X150145295Y-87285713D02*
X150383390Y-87285713D01*
X150383390Y-87285713D02*
X150478628Y-87238094D01*
X150478628Y-87238094D02*
X150526247Y-87190475D01*
X150526247Y-87190475D02*
X150573866Y-87095237D01*
X150573866Y-87095237D02*
X150573866Y-86904761D01*
X150573866Y-86904761D02*
X150526247Y-86809523D01*
X150526247Y-86809523D02*
X150478628Y-86761904D01*
X150478628Y-86761904D02*
X150383390Y-86714285D01*
X122714580Y-70516666D02*
X122762200Y-70564285D01*
X122762200Y-70564285D02*
X122809819Y-70707142D01*
X122809819Y-70707142D02*
X122809819Y-70802380D01*
X122809819Y-70802380D02*
X122762200Y-70945237D01*
X122762200Y-70945237D02*
X122666961Y-71040475D01*
X122666961Y-71040475D02*
X122571723Y-71088094D01*
X122571723Y-71088094D02*
X122381247Y-71135713D01*
X122381247Y-71135713D02*
X122238390Y-71135713D01*
X122238390Y-71135713D02*
X122047914Y-71088094D01*
X122047914Y-71088094D02*
X121952676Y-71040475D01*
X121952676Y-71040475D02*
X121857438Y-70945237D01*
X121857438Y-70945237D02*
X121809819Y-70802380D01*
X121809819Y-70802380D02*
X121809819Y-70707142D01*
X121809819Y-70707142D02*
X121857438Y-70564285D01*
X121857438Y-70564285D02*
X121905057Y-70516666D01*
X121809819Y-70183332D02*
X121809819Y-69564285D01*
X121809819Y-69564285D02*
X122190771Y-69897618D01*
X122190771Y-69897618D02*
X122190771Y-69754761D01*
X122190771Y-69754761D02*
X122238390Y-69659523D01*
X122238390Y-69659523D02*
X122286009Y-69611904D01*
X122286009Y-69611904D02*
X122381247Y-69564285D01*
X122381247Y-69564285D02*
X122619342Y-69564285D01*
X122619342Y-69564285D02*
X122714580Y-69611904D01*
X122714580Y-69611904D02*
X122762200Y-69659523D01*
X122762200Y-69659523D02*
X122809819Y-69754761D01*
X122809819Y-69754761D02*
X122809819Y-70040475D01*
X122809819Y-70040475D02*
X122762200Y-70135713D01*
X122762200Y-70135713D02*
X122714580Y-70183332D01*
X136809580Y-75642857D02*
X136857200Y-75690476D01*
X136857200Y-75690476D02*
X136904819Y-75833333D01*
X136904819Y-75833333D02*
X136904819Y-75928571D01*
X136904819Y-75928571D02*
X136857200Y-76071428D01*
X136857200Y-76071428D02*
X136761961Y-76166666D01*
X136761961Y-76166666D02*
X136666723Y-76214285D01*
X136666723Y-76214285D02*
X136476247Y-76261904D01*
X136476247Y-76261904D02*
X136333390Y-76261904D01*
X136333390Y-76261904D02*
X136142914Y-76214285D01*
X136142914Y-76214285D02*
X136047676Y-76166666D01*
X136047676Y-76166666D02*
X135952438Y-76071428D01*
X135952438Y-76071428D02*
X135904819Y-75928571D01*
X135904819Y-75928571D02*
X135904819Y-75833333D01*
X135904819Y-75833333D02*
X135952438Y-75690476D01*
X135952438Y-75690476D02*
X136000057Y-75642857D01*
X136904819Y-74690476D02*
X136904819Y-75261904D01*
X136904819Y-74976190D02*
X135904819Y-74976190D01*
X135904819Y-74976190D02*
X136047676Y-75071428D01*
X136047676Y-75071428D02*
X136142914Y-75166666D01*
X136142914Y-75166666D02*
X136190533Y-75261904D01*
X135904819Y-74357142D02*
X135904819Y-73738095D01*
X135904819Y-73738095D02*
X136285771Y-74071428D01*
X136285771Y-74071428D02*
X136285771Y-73928571D01*
X136285771Y-73928571D02*
X136333390Y-73833333D01*
X136333390Y-73833333D02*
X136381009Y-73785714D01*
X136381009Y-73785714D02*
X136476247Y-73738095D01*
X136476247Y-73738095D02*
X136714342Y-73738095D01*
X136714342Y-73738095D02*
X136809580Y-73785714D01*
X136809580Y-73785714D02*
X136857200Y-73833333D01*
X136857200Y-73833333D02*
X136904819Y-73928571D01*
X136904819Y-73928571D02*
X136904819Y-74214285D01*
X136904819Y-74214285D02*
X136857200Y-74309523D01*
X136857200Y-74309523D02*
X136809580Y-74357142D01*
X137754819Y-75666666D02*
X137278628Y-75999999D01*
X137754819Y-76238094D02*
X136754819Y-76238094D01*
X136754819Y-76238094D02*
X136754819Y-75857142D01*
X136754819Y-75857142D02*
X136802438Y-75761904D01*
X136802438Y-75761904D02*
X136850057Y-75714285D01*
X136850057Y-75714285D02*
X136945295Y-75666666D01*
X136945295Y-75666666D02*
X137088152Y-75666666D01*
X137088152Y-75666666D02*
X137183390Y-75714285D01*
X137183390Y-75714285D02*
X137231009Y-75761904D01*
X137231009Y-75761904D02*
X137278628Y-75857142D01*
X137278628Y-75857142D02*
X137278628Y-76238094D01*
X137754819Y-74714285D02*
X137754819Y-75285713D01*
X137754819Y-74999999D02*
X136754819Y-74999999D01*
X136754819Y-74999999D02*
X136897676Y-75095237D01*
X136897676Y-75095237D02*
X136992914Y-75190475D01*
X136992914Y-75190475D02*
X137040533Y-75285713D01*
D12*
X145583333Y-74392580D02*
X145583333Y-73678295D01*
X145583333Y-73678295D02*
X145630952Y-73535438D01*
X145630952Y-73535438D02*
X145726190Y-73440200D01*
X145726190Y-73440200D02*
X145869047Y-73392580D01*
X145869047Y-73392580D02*
X145964285Y-73392580D01*
X144630952Y-74392580D02*
X145107142Y-74392580D01*
X145107142Y-74392580D02*
X145154761Y-73916390D01*
X145154761Y-73916390D02*
X145107142Y-73964009D01*
X145107142Y-73964009D02*
X145011904Y-74011628D01*
X145011904Y-74011628D02*
X144773809Y-74011628D01*
X144773809Y-74011628D02*
X144678571Y-73964009D01*
X144678571Y-73964009D02*
X144630952Y-73916390D01*
X144630952Y-73916390D02*
X144583333Y-73821152D01*
X144583333Y-73821152D02*
X144583333Y-73583057D01*
X144583333Y-73583057D02*
X144630952Y-73487819D01*
X144630952Y-73487819D02*
X144678571Y-73440200D01*
X144678571Y-73440200D02*
X144773809Y-73392580D01*
X144773809Y-73392580D02*
X145011904Y-73392580D01*
X145011904Y-73392580D02*
X145107142Y-73440200D01*
X145107142Y-73440200D02*
X145154761Y-73487819D01*
D10*
X100367200Y-44373332D02*
X100414819Y-44230475D01*
X100414819Y-44230475D02*
X100414819Y-43992380D01*
X100414819Y-43992380D02*
X100367200Y-43897142D01*
X100367200Y-43897142D02*
X100319580Y-43849523D01*
X100319580Y-43849523D02*
X100224342Y-43801904D01*
X100224342Y-43801904D02*
X100129104Y-43801904D01*
X100129104Y-43801904D02*
X100033866Y-43849523D01*
X100033866Y-43849523D02*
X99986247Y-43897142D01*
X99986247Y-43897142D02*
X99938628Y-43992380D01*
X99938628Y-43992380D02*
X99891009Y-44182856D01*
X99891009Y-44182856D02*
X99843390Y-44278094D01*
X99843390Y-44278094D02*
X99795771Y-44325713D01*
X99795771Y-44325713D02*
X99700533Y-44373332D01*
X99700533Y-44373332D02*
X99605295Y-44373332D01*
X99605295Y-44373332D02*
X99510057Y-44325713D01*
X99510057Y-44325713D02*
X99462438Y-44278094D01*
X99462438Y-44278094D02*
X99414819Y-44182856D01*
X99414819Y-44182856D02*
X99414819Y-43944761D01*
X99414819Y-43944761D02*
X99462438Y-43801904D01*
X99414819Y-43468570D02*
X100414819Y-43230475D01*
X100414819Y-43230475D02*
X99700533Y-43039999D01*
X99700533Y-43039999D02*
X100414819Y-42849523D01*
X100414819Y-42849523D02*
X99414819Y-42611428D01*
X100414819Y-41706666D02*
X100414819Y-42278094D01*
X100414819Y-41992380D02*
X99414819Y-41992380D01*
X99414819Y-41992380D02*
X99557676Y-42087618D01*
X99557676Y-42087618D02*
X99652914Y-42182856D01*
X99652914Y-42182856D02*
X99700533Y-42278094D01*
X137153333Y-72504819D02*
X136820000Y-72028628D01*
X136581905Y-72504819D02*
X136581905Y-71504819D01*
X136581905Y-71504819D02*
X136962857Y-71504819D01*
X136962857Y-71504819D02*
X137058095Y-71552438D01*
X137058095Y-71552438D02*
X137105714Y-71600057D01*
X137105714Y-71600057D02*
X137153333Y-71695295D01*
X137153333Y-71695295D02*
X137153333Y-71838152D01*
X137153333Y-71838152D02*
X137105714Y-71933390D01*
X137105714Y-71933390D02*
X137058095Y-71981009D01*
X137058095Y-71981009D02*
X136962857Y-72028628D01*
X136962857Y-72028628D02*
X136581905Y-72028628D01*
X138010476Y-71838152D02*
X138010476Y-72504819D01*
X137772381Y-71457200D02*
X137534286Y-72171485D01*
X137534286Y-72171485D02*
X138153333Y-72171485D01*
X149359580Y-82642857D02*
X149407200Y-82690476D01*
X149407200Y-82690476D02*
X149454819Y-82833333D01*
X149454819Y-82833333D02*
X149454819Y-82928571D01*
X149454819Y-82928571D02*
X149407200Y-83071428D01*
X149407200Y-83071428D02*
X149311961Y-83166666D01*
X149311961Y-83166666D02*
X149216723Y-83214285D01*
X149216723Y-83214285D02*
X149026247Y-83261904D01*
X149026247Y-83261904D02*
X148883390Y-83261904D01*
X148883390Y-83261904D02*
X148692914Y-83214285D01*
X148692914Y-83214285D02*
X148597676Y-83166666D01*
X148597676Y-83166666D02*
X148502438Y-83071428D01*
X148502438Y-83071428D02*
X148454819Y-82928571D01*
X148454819Y-82928571D02*
X148454819Y-82833333D01*
X148454819Y-82833333D02*
X148502438Y-82690476D01*
X148502438Y-82690476D02*
X148550057Y-82642857D01*
X149454819Y-81690476D02*
X149454819Y-82261904D01*
X149454819Y-81976190D02*
X148454819Y-81976190D01*
X148454819Y-81976190D02*
X148597676Y-82071428D01*
X148597676Y-82071428D02*
X148692914Y-82166666D01*
X148692914Y-82166666D02*
X148740533Y-82261904D01*
X148550057Y-81309523D02*
X148502438Y-81261904D01*
X148502438Y-81261904D02*
X148454819Y-81166666D01*
X148454819Y-81166666D02*
X148454819Y-80928571D01*
X148454819Y-80928571D02*
X148502438Y-80833333D01*
X148502438Y-80833333D02*
X148550057Y-80785714D01*
X148550057Y-80785714D02*
X148645295Y-80738095D01*
X148645295Y-80738095D02*
X148740533Y-80738095D01*
X148740533Y-80738095D02*
X148883390Y-80785714D01*
X148883390Y-80785714D02*
X149454819Y-81357142D01*
X149454819Y-81357142D02*
X149454819Y-80738095D01*
X134809580Y-89986666D02*
X134857200Y-90034285D01*
X134857200Y-90034285D02*
X134904819Y-90177142D01*
X134904819Y-90177142D02*
X134904819Y-90272380D01*
X134904819Y-90272380D02*
X134857200Y-90415237D01*
X134857200Y-90415237D02*
X134761961Y-90510475D01*
X134761961Y-90510475D02*
X134666723Y-90558094D01*
X134666723Y-90558094D02*
X134476247Y-90605713D01*
X134476247Y-90605713D02*
X134333390Y-90605713D01*
X134333390Y-90605713D02*
X134142914Y-90558094D01*
X134142914Y-90558094D02*
X134047676Y-90510475D01*
X134047676Y-90510475D02*
X133952438Y-90415237D01*
X133952438Y-90415237D02*
X133904819Y-90272380D01*
X133904819Y-90272380D02*
X133904819Y-90177142D01*
X133904819Y-90177142D02*
X133952438Y-90034285D01*
X133952438Y-90034285D02*
X134000057Y-89986666D01*
X134904819Y-89034285D02*
X134904819Y-89605713D01*
X134904819Y-89319999D02*
X133904819Y-89319999D01*
X133904819Y-89319999D02*
X134047676Y-89415237D01*
X134047676Y-89415237D02*
X134142914Y-89510475D01*
X134142914Y-89510475D02*
X134190533Y-89605713D01*
X123738333Y-71754819D02*
X123405000Y-71278628D01*
X123166905Y-71754819D02*
X123166905Y-70754819D01*
X123166905Y-70754819D02*
X123547857Y-70754819D01*
X123547857Y-70754819D02*
X123643095Y-70802438D01*
X123643095Y-70802438D02*
X123690714Y-70850057D01*
X123690714Y-70850057D02*
X123738333Y-70945295D01*
X123738333Y-70945295D02*
X123738333Y-71088152D01*
X123738333Y-71088152D02*
X123690714Y-71183390D01*
X123690714Y-71183390D02*
X123643095Y-71231009D01*
X123643095Y-71231009D02*
X123547857Y-71278628D01*
X123547857Y-71278628D02*
X123166905Y-71278628D01*
X124119286Y-70850057D02*
X124166905Y-70802438D01*
X124166905Y-70802438D02*
X124262143Y-70754819D01*
X124262143Y-70754819D02*
X124500238Y-70754819D01*
X124500238Y-70754819D02*
X124595476Y-70802438D01*
X124595476Y-70802438D02*
X124643095Y-70850057D01*
X124643095Y-70850057D02*
X124690714Y-70945295D01*
X124690714Y-70945295D02*
X124690714Y-71040533D01*
X124690714Y-71040533D02*
X124643095Y-71183390D01*
X124643095Y-71183390D02*
X124071667Y-71754819D01*
X124071667Y-71754819D02*
X124690714Y-71754819D01*
X122488333Y-73404819D02*
X122155000Y-72928628D01*
X121916905Y-73404819D02*
X121916905Y-72404819D01*
X121916905Y-72404819D02*
X122297857Y-72404819D01*
X122297857Y-72404819D02*
X122393095Y-72452438D01*
X122393095Y-72452438D02*
X122440714Y-72500057D01*
X122440714Y-72500057D02*
X122488333Y-72595295D01*
X122488333Y-72595295D02*
X122488333Y-72738152D01*
X122488333Y-72738152D02*
X122440714Y-72833390D01*
X122440714Y-72833390D02*
X122393095Y-72881009D01*
X122393095Y-72881009D02*
X122297857Y-72928628D01*
X122297857Y-72928628D02*
X121916905Y-72928628D01*
X122821667Y-72404819D02*
X123440714Y-72404819D01*
X123440714Y-72404819D02*
X123107381Y-72785771D01*
X123107381Y-72785771D02*
X123250238Y-72785771D01*
X123250238Y-72785771D02*
X123345476Y-72833390D01*
X123345476Y-72833390D02*
X123393095Y-72881009D01*
X123393095Y-72881009D02*
X123440714Y-72976247D01*
X123440714Y-72976247D02*
X123440714Y-73214342D01*
X123440714Y-73214342D02*
X123393095Y-73309580D01*
X123393095Y-73309580D02*
X123345476Y-73357200D01*
X123345476Y-73357200D02*
X123250238Y-73404819D01*
X123250238Y-73404819D02*
X122964524Y-73404819D01*
X122964524Y-73404819D02*
X122869286Y-73357200D01*
X122869286Y-73357200D02*
X122821667Y-73309580D01*
X139333333Y-79989580D02*
X139285714Y-80037200D01*
X139285714Y-80037200D02*
X139142857Y-80084819D01*
X139142857Y-80084819D02*
X139047619Y-80084819D01*
X139047619Y-80084819D02*
X138904762Y-80037200D01*
X138904762Y-80037200D02*
X138809524Y-79941961D01*
X138809524Y-79941961D02*
X138761905Y-79846723D01*
X138761905Y-79846723D02*
X138714286Y-79656247D01*
X138714286Y-79656247D02*
X138714286Y-79513390D01*
X138714286Y-79513390D02*
X138761905Y-79322914D01*
X138761905Y-79322914D02*
X138809524Y-79227676D01*
X138809524Y-79227676D02*
X138904762Y-79132438D01*
X138904762Y-79132438D02*
X139047619Y-79084819D01*
X139047619Y-79084819D02*
X139142857Y-79084819D01*
X139142857Y-79084819D02*
X139285714Y-79132438D01*
X139285714Y-79132438D02*
X139333333Y-79180057D01*
X140190476Y-79084819D02*
X140000000Y-79084819D01*
X140000000Y-79084819D02*
X139904762Y-79132438D01*
X139904762Y-79132438D02*
X139857143Y-79180057D01*
X139857143Y-79180057D02*
X139761905Y-79322914D01*
X139761905Y-79322914D02*
X139714286Y-79513390D01*
X139714286Y-79513390D02*
X139714286Y-79894342D01*
X139714286Y-79894342D02*
X139761905Y-79989580D01*
X139761905Y-79989580D02*
X139809524Y-80037200D01*
X139809524Y-80037200D02*
X139904762Y-80084819D01*
X139904762Y-80084819D02*
X140095238Y-80084819D01*
X140095238Y-80084819D02*
X140190476Y-80037200D01*
X140190476Y-80037200D02*
X140238095Y-79989580D01*
X140238095Y-79989580D02*
X140285714Y-79894342D01*
X140285714Y-79894342D02*
X140285714Y-79656247D01*
X140285714Y-79656247D02*
X140238095Y-79561009D01*
X140238095Y-79561009D02*
X140190476Y-79513390D01*
X140190476Y-79513390D02*
X140095238Y-79465771D01*
X140095238Y-79465771D02*
X139904762Y-79465771D01*
X139904762Y-79465771D02*
X139809524Y-79513390D01*
X139809524Y-79513390D02*
X139761905Y-79561009D01*
X139761905Y-79561009D02*
X139714286Y-79656247D01*
X133159580Y-86016666D02*
X133207200Y-86064285D01*
X133207200Y-86064285D02*
X133254819Y-86207142D01*
X133254819Y-86207142D02*
X133254819Y-86302380D01*
X133254819Y-86302380D02*
X133207200Y-86445237D01*
X133207200Y-86445237D02*
X133111961Y-86540475D01*
X133111961Y-86540475D02*
X133016723Y-86588094D01*
X133016723Y-86588094D02*
X132826247Y-86635713D01*
X132826247Y-86635713D02*
X132683390Y-86635713D01*
X132683390Y-86635713D02*
X132492914Y-86588094D01*
X132492914Y-86588094D02*
X132397676Y-86540475D01*
X132397676Y-86540475D02*
X132302438Y-86445237D01*
X132302438Y-86445237D02*
X132254819Y-86302380D01*
X132254819Y-86302380D02*
X132254819Y-86207142D01*
X132254819Y-86207142D02*
X132302438Y-86064285D01*
X132302438Y-86064285D02*
X132350057Y-86016666D01*
X132254819Y-85683332D02*
X132254819Y-85016666D01*
X132254819Y-85016666D02*
X133254819Y-85445237D01*
X127583333Y-75504819D02*
X127250000Y-75028628D01*
X127011905Y-75504819D02*
X127011905Y-74504819D01*
X127011905Y-74504819D02*
X127392857Y-74504819D01*
X127392857Y-74504819D02*
X127488095Y-74552438D01*
X127488095Y-74552438D02*
X127535714Y-74600057D01*
X127535714Y-74600057D02*
X127583333Y-74695295D01*
X127583333Y-74695295D02*
X127583333Y-74838152D01*
X127583333Y-74838152D02*
X127535714Y-74933390D01*
X127535714Y-74933390D02*
X127488095Y-74981009D01*
X127488095Y-74981009D02*
X127392857Y-75028628D01*
X127392857Y-75028628D02*
X127011905Y-75028628D01*
X128488095Y-74504819D02*
X128011905Y-74504819D01*
X128011905Y-74504819D02*
X127964286Y-74981009D01*
X127964286Y-74981009D02*
X128011905Y-74933390D01*
X128011905Y-74933390D02*
X128107143Y-74885771D01*
X128107143Y-74885771D02*
X128345238Y-74885771D01*
X128345238Y-74885771D02*
X128440476Y-74933390D01*
X128440476Y-74933390D02*
X128488095Y-74981009D01*
X128488095Y-74981009D02*
X128535714Y-75076247D01*
X128535714Y-75076247D02*
X128535714Y-75314342D01*
X128535714Y-75314342D02*
X128488095Y-75409580D01*
X128488095Y-75409580D02*
X128440476Y-75457200D01*
X128440476Y-75457200D02*
X128345238Y-75504819D01*
X128345238Y-75504819D02*
X128107143Y-75504819D01*
X128107143Y-75504819D02*
X128011905Y-75457200D01*
X128011905Y-75457200D02*
X127964286Y-75409580D01*
X148359580Y-88142857D02*
X148407200Y-88190476D01*
X148407200Y-88190476D02*
X148454819Y-88333333D01*
X148454819Y-88333333D02*
X148454819Y-88428571D01*
X148454819Y-88428571D02*
X148407200Y-88571428D01*
X148407200Y-88571428D02*
X148311961Y-88666666D01*
X148311961Y-88666666D02*
X148216723Y-88714285D01*
X148216723Y-88714285D02*
X148026247Y-88761904D01*
X148026247Y-88761904D02*
X147883390Y-88761904D01*
X147883390Y-88761904D02*
X147692914Y-88714285D01*
X147692914Y-88714285D02*
X147597676Y-88666666D01*
X147597676Y-88666666D02*
X147502438Y-88571428D01*
X147502438Y-88571428D02*
X147454819Y-88428571D01*
X147454819Y-88428571D02*
X147454819Y-88333333D01*
X147454819Y-88333333D02*
X147502438Y-88190476D01*
X147502438Y-88190476D02*
X147550057Y-88142857D01*
X148454819Y-87190476D02*
X148454819Y-87761904D01*
X148454819Y-87476190D02*
X147454819Y-87476190D01*
X147454819Y-87476190D02*
X147597676Y-87571428D01*
X147597676Y-87571428D02*
X147692914Y-87666666D01*
X147692914Y-87666666D02*
X147740533Y-87761904D01*
X147454819Y-86571428D02*
X147454819Y-86476190D01*
X147454819Y-86476190D02*
X147502438Y-86380952D01*
X147502438Y-86380952D02*
X147550057Y-86333333D01*
X147550057Y-86333333D02*
X147645295Y-86285714D01*
X147645295Y-86285714D02*
X147835771Y-86238095D01*
X147835771Y-86238095D02*
X148073866Y-86238095D01*
X148073866Y-86238095D02*
X148264342Y-86285714D01*
X148264342Y-86285714D02*
X148359580Y-86333333D01*
X148359580Y-86333333D02*
X148407200Y-86380952D01*
X148407200Y-86380952D02*
X148454819Y-86476190D01*
X148454819Y-86476190D02*
X148454819Y-86571428D01*
X148454819Y-86571428D02*
X148407200Y-86666666D01*
X148407200Y-86666666D02*
X148359580Y-86714285D01*
X148359580Y-86714285D02*
X148264342Y-86761904D01*
X148264342Y-86761904D02*
X148073866Y-86809523D01*
X148073866Y-86809523D02*
X147835771Y-86809523D01*
X147835771Y-86809523D02*
X147645295Y-86761904D01*
X147645295Y-86761904D02*
X147550057Y-86714285D01*
X147550057Y-86714285D02*
X147502438Y-86666666D01*
X147502438Y-86666666D02*
X147454819Y-86571428D01*
D12*
X104457419Y-61333333D02*
X105171704Y-61333333D01*
X105171704Y-61333333D02*
X105314561Y-61380952D01*
X105314561Y-61380952D02*
X105409800Y-61476190D01*
X105409800Y-61476190D02*
X105457419Y-61619047D01*
X105457419Y-61619047D02*
X105457419Y-61714285D01*
X104552657Y-60904761D02*
X104505038Y-60857142D01*
X104505038Y-60857142D02*
X104457419Y-60761904D01*
X104457419Y-60761904D02*
X104457419Y-60523809D01*
X104457419Y-60523809D02*
X104505038Y-60428571D01*
X104505038Y-60428571D02*
X104552657Y-60380952D01*
X104552657Y-60380952D02*
X104647895Y-60333333D01*
X104647895Y-60333333D02*
X104743133Y-60333333D01*
X104743133Y-60333333D02*
X104885990Y-60380952D01*
X104885990Y-60380952D02*
X105457419Y-60952380D01*
X105457419Y-60952380D02*
X105457419Y-60333333D01*
D10*
X118214580Y-55516666D02*
X118262200Y-55564285D01*
X118262200Y-55564285D02*
X118309819Y-55707142D01*
X118309819Y-55707142D02*
X118309819Y-55802380D01*
X118309819Y-55802380D02*
X118262200Y-55945237D01*
X118262200Y-55945237D02*
X118166961Y-56040475D01*
X118166961Y-56040475D02*
X118071723Y-56088094D01*
X118071723Y-56088094D02*
X117881247Y-56135713D01*
X117881247Y-56135713D02*
X117738390Y-56135713D01*
X117738390Y-56135713D02*
X117547914Y-56088094D01*
X117547914Y-56088094D02*
X117452676Y-56040475D01*
X117452676Y-56040475D02*
X117357438Y-55945237D01*
X117357438Y-55945237D02*
X117309819Y-55802380D01*
X117309819Y-55802380D02*
X117309819Y-55707142D01*
X117309819Y-55707142D02*
X117357438Y-55564285D01*
X117357438Y-55564285D02*
X117405057Y-55516666D01*
X117405057Y-55135713D02*
X117357438Y-55088094D01*
X117357438Y-55088094D02*
X117309819Y-54992856D01*
X117309819Y-54992856D02*
X117309819Y-54754761D01*
X117309819Y-54754761D02*
X117357438Y-54659523D01*
X117357438Y-54659523D02*
X117405057Y-54611904D01*
X117405057Y-54611904D02*
X117500295Y-54564285D01*
X117500295Y-54564285D02*
X117595533Y-54564285D01*
X117595533Y-54564285D02*
X117738390Y-54611904D01*
X117738390Y-54611904D02*
X118309819Y-55183332D01*
X118309819Y-55183332D02*
X118309819Y-54564285D01*
X135083333Y-72589580D02*
X135035714Y-72637200D01*
X135035714Y-72637200D02*
X134892857Y-72684819D01*
X134892857Y-72684819D02*
X134797619Y-72684819D01*
X134797619Y-72684819D02*
X134654762Y-72637200D01*
X134654762Y-72637200D02*
X134559524Y-72541961D01*
X134559524Y-72541961D02*
X134511905Y-72446723D01*
X134511905Y-72446723D02*
X134464286Y-72256247D01*
X134464286Y-72256247D02*
X134464286Y-72113390D01*
X134464286Y-72113390D02*
X134511905Y-71922914D01*
X134511905Y-71922914D02*
X134559524Y-71827676D01*
X134559524Y-71827676D02*
X134654762Y-71732438D01*
X134654762Y-71732438D02*
X134797619Y-71684819D01*
X134797619Y-71684819D02*
X134892857Y-71684819D01*
X134892857Y-71684819D02*
X135035714Y-71732438D01*
X135035714Y-71732438D02*
X135083333Y-71780057D01*
X135988095Y-71684819D02*
X135511905Y-71684819D01*
X135511905Y-71684819D02*
X135464286Y-72161009D01*
X135464286Y-72161009D02*
X135511905Y-72113390D01*
X135511905Y-72113390D02*
X135607143Y-72065771D01*
X135607143Y-72065771D02*
X135845238Y-72065771D01*
X135845238Y-72065771D02*
X135940476Y-72113390D01*
X135940476Y-72113390D02*
X135988095Y-72161009D01*
X135988095Y-72161009D02*
X136035714Y-72256247D01*
X136035714Y-72256247D02*
X136035714Y-72494342D01*
X136035714Y-72494342D02*
X135988095Y-72589580D01*
X135988095Y-72589580D02*
X135940476Y-72637200D01*
X135940476Y-72637200D02*
X135845238Y-72684819D01*
X135845238Y-72684819D02*
X135607143Y-72684819D01*
X135607143Y-72684819D02*
X135511905Y-72637200D01*
X135511905Y-72637200D02*
X135464286Y-72589580D01*
X142988095Y-80604819D02*
X142988095Y-81414342D01*
X142988095Y-81414342D02*
X143035714Y-81509580D01*
X143035714Y-81509580D02*
X143083333Y-81557200D01*
X143083333Y-81557200D02*
X143178571Y-81604819D01*
X143178571Y-81604819D02*
X143369047Y-81604819D01*
X143369047Y-81604819D02*
X143464285Y-81557200D01*
X143464285Y-81557200D02*
X143511904Y-81509580D01*
X143511904Y-81509580D02*
X143559523Y-81414342D01*
X143559523Y-81414342D02*
X143559523Y-80604819D01*
X143940476Y-80604819D02*
X144559523Y-80604819D01*
X144559523Y-80604819D02*
X144226190Y-80985771D01*
X144226190Y-80985771D02*
X144369047Y-80985771D01*
X144369047Y-80985771D02*
X144464285Y-81033390D01*
X144464285Y-81033390D02*
X144511904Y-81081009D01*
X144511904Y-81081009D02*
X144559523Y-81176247D01*
X144559523Y-81176247D02*
X144559523Y-81414342D01*
X144559523Y-81414342D02*
X144511904Y-81509580D01*
X144511904Y-81509580D02*
X144464285Y-81557200D01*
X144464285Y-81557200D02*
X144369047Y-81604819D01*
X144369047Y-81604819D02*
X144083333Y-81604819D01*
X144083333Y-81604819D02*
X143988095Y-81557200D01*
X143988095Y-81557200D02*
X143940476Y-81509580D01*
X154129580Y-83992857D02*
X154177200Y-84040476D01*
X154177200Y-84040476D02*
X154224819Y-84183333D01*
X154224819Y-84183333D02*
X154224819Y-84278571D01*
X154224819Y-84278571D02*
X154177200Y-84421428D01*
X154177200Y-84421428D02*
X154081961Y-84516666D01*
X154081961Y-84516666D02*
X153986723Y-84564285D01*
X153986723Y-84564285D02*
X153796247Y-84611904D01*
X153796247Y-84611904D02*
X153653390Y-84611904D01*
X153653390Y-84611904D02*
X153462914Y-84564285D01*
X153462914Y-84564285D02*
X153367676Y-84516666D01*
X153367676Y-84516666D02*
X153272438Y-84421428D01*
X153272438Y-84421428D02*
X153224819Y-84278571D01*
X153224819Y-84278571D02*
X153224819Y-84183333D01*
X153224819Y-84183333D02*
X153272438Y-84040476D01*
X153272438Y-84040476D02*
X153320057Y-83992857D01*
X154224819Y-83040476D02*
X154224819Y-83611904D01*
X154224819Y-83326190D02*
X153224819Y-83326190D01*
X153224819Y-83326190D02*
X153367676Y-83421428D01*
X153367676Y-83421428D02*
X153462914Y-83516666D01*
X153462914Y-83516666D02*
X153510533Y-83611904D01*
X154224819Y-82088095D02*
X154224819Y-82659523D01*
X154224819Y-82373809D02*
X153224819Y-82373809D01*
X153224819Y-82373809D02*
X153367676Y-82469047D01*
X153367676Y-82469047D02*
X153462914Y-82564285D01*
X153462914Y-82564285D02*
X153510533Y-82659523D01*
X127916666Y-36904819D02*
X127916666Y-37619104D01*
X127916666Y-37619104D02*
X127869047Y-37761961D01*
X127869047Y-37761961D02*
X127773809Y-37857200D01*
X127773809Y-37857200D02*
X127630952Y-37904819D01*
X127630952Y-37904819D02*
X127535714Y-37904819D01*
X128916666Y-37904819D02*
X128345238Y-37904819D01*
X128630952Y-37904819D02*
X128630952Y-36904819D01*
X128630952Y-36904819D02*
X128535714Y-37047676D01*
X128535714Y-37047676D02*
X128440476Y-37142914D01*
X128440476Y-37142914D02*
X128345238Y-37190533D01*
D12*
%TO.C,U1*%
X102800500Y-112056750D02*
X102800500Y-129201750D01*
X104705500Y-131106750D02*
X118675500Y-131106750D01*
D13*
X107186500Y-132116750D02*
X107186500Y-131106750D01*
X115681772Y-132616750D02*
X107686500Y-132616750D01*
X116185500Y-131106750D02*
X116181772Y-132117022D01*
D12*
X118675500Y-110151750D02*
X104705500Y-110151750D01*
X120580500Y-112056750D02*
X120580500Y-129201750D01*
X102800500Y-112056750D02*
G75*
G02*
X104705500Y-110151750I1905000J0D01*
G01*
X104705500Y-131106750D02*
G75*
G02*
X102800500Y-129201750I0J1905000D01*
G01*
D13*
X107686500Y-132616750D02*
G75*
G02*
X107186500Y-132116750I0J500000D01*
G01*
X116181772Y-132117022D02*
G75*
G02*
X115681772Y-132616749I-500018J291D01*
G01*
D12*
X118675500Y-110151750D02*
G75*
G02*
X120580500Y-112056750I-1J-1905001D01*
G01*
X120580500Y-129205750D02*
G75*
G02*
X118675500Y-131110750I-1905001J1D01*
G01*
D14*
X119899500Y-129810750D02*
G75*
G02*
X119395500Y-129810750I-252000J0D01*
G01*
X119395500Y-129810750D02*
G75*
G02*
X119899500Y-129810750I252000J0D01*
G01*
X121042500Y-130690750D02*
G75*
G02*
X120538500Y-130690750I-252000J0D01*
G01*
X120538500Y-130690750D02*
G75*
G02*
X121042500Y-130690750I252000J0D01*
G01*
%TO.C,SW2*%
D15*
X142140000Y-37640000D02*
X152360000Y-37640000D01*
X152360000Y-40360000D01*
X142140000Y-40360000D01*
X142140000Y-37640000D01*
%TO.C,U5*%
X115302500Y-69540000D02*
X119922500Y-69540000D01*
X119922500Y-77610000D02*
X115302500Y-77610000D01*
X113752500Y-69995000D02*
X113422500Y-70235000D01*
X113422500Y-69755000D01*
X113752500Y-69995000D01*
G36*
X113752500Y-69995000D02*
G01*
X113422500Y-70235000D01*
X113422500Y-69755000D01*
X113752500Y-69995000D01*
G37*
%TO.C,C4*%
X130175000Y-88765000D02*
X130175000Y-91085000D01*
X131825000Y-88765000D02*
X130175000Y-88765000D01*
X131825000Y-91085000D02*
X131825000Y-88765000D01*
%TO.C,C9*%
X151425000Y-86265000D02*
X151425000Y-88585000D01*
X151425000Y-88585000D02*
X153075000Y-88585000D01*
X153075000Y-88585000D02*
X153075000Y-86265000D01*
%TO.C,SW1*%
X101140000Y-48150000D02*
X103860000Y-48150000D01*
X103860000Y-37930000D01*
X101140000Y-37930000D01*
X101140000Y-48150000D01*
%TO.C,C5*%
X133730000Y-72925000D02*
X133730000Y-74575000D01*
X133730000Y-74575000D02*
X136050000Y-74575000D01*
X136050000Y-72925000D02*
X133730000Y-72925000D01*
%TO.C,U3*%
X141440000Y-81965000D02*
X146060000Y-81965000D01*
X146060000Y-88735000D02*
X141440000Y-88735000D01*
X139890000Y-82420000D02*
X139560000Y-82660000D01*
X139560000Y-82180000D01*
X139890000Y-82420000D01*
G36*
X139890000Y-82420000D02*
G01*
X139560000Y-82660000D01*
X139560000Y-82180000D01*
X139890000Y-82420000D01*
G37*
%TO.C,C11*%
X151425000Y-81830000D02*
X151425000Y-84150000D01*
X153075000Y-81830000D02*
X151425000Y-81830000D01*
X153075000Y-84150000D02*
X153075000Y-81830000D01*
%TO.C,J1*%
X124890000Y-38240000D02*
X124890000Y-39490000D01*
X125190000Y-39850000D02*
X125800000Y-39850000D01*
X125190000Y-41150000D02*
X125800000Y-41150000D01*
X125800000Y-39150000D02*
X125800000Y-42650000D01*
X125800000Y-42650000D02*
X130700000Y-42650000D01*
X126140000Y-38240000D02*
X124890000Y-38240000D01*
X126650000Y-38340000D02*
X126650000Y-38540000D01*
X126950000Y-38340000D02*
X126650000Y-38340000D01*
X126950000Y-38440000D02*
X126650000Y-38440000D01*
X126950000Y-38540000D02*
X126950000Y-38340000D01*
X127750000Y-38540000D02*
X127750000Y-39150000D01*
X127750000Y-39150000D02*
X125800000Y-39150000D01*
X128150000Y-42150000D02*
X128350000Y-42150000D01*
X128150000Y-42650000D02*
X128150000Y-42150000D01*
X128250000Y-42650000D02*
X128250000Y-42150000D01*
X128350000Y-42150000D02*
X128350000Y-42650000D01*
X128750000Y-39150000D02*
X128750000Y-38540000D01*
X130700000Y-39150000D02*
X128750000Y-39150000D01*
X130700000Y-42650000D02*
X130700000Y-39150000D01*
X131310000Y-39850000D02*
X130700000Y-39850000D01*
X131310000Y-41150000D02*
X130700000Y-41150000D01*
X125190000Y-38540000D02*
X131310000Y-38540000D01*
X131310000Y-43260000D01*
X125190000Y-43260000D01*
X125190000Y-38540000D01*
%TD*%
M02*
