%TF.GenerationSoftware,KiCad,Pcbnew,9.0.7-1.fc43*%
%TF.CreationDate,2026-03-06T09:11:30+10:30*%
%TF.ProjectId,Simple MP3 Player,53696d70-6c65-4204-9d50-3320506c6179,rev?*%
%TF.SameCoordinates,Original*%
%TF.FileFunction,Copper,L4,Bot*%
%TF.FilePolarity,Positive*%
%FSLAX46Y46*%
G04 Gerber Fmt 4.6, Leading zero omitted, Abs format (unit mm)*
G04 Created by KiCad (PCBNEW 9.0.7-1.fc43) date 2026-03-06 09:11:30*
%MOMM*%
%LPD*%
G01*
G04 APERTURE LIST*
G04 Aperture macros list*
%AMRoundRect*
0 Rectangle with rounded corners*
0 $1 Rounding radius*
0 $2 $3 $4 $5 $6 $7 $8 $9 X,Y pos of 4 corners*
0 Add a 4 corners polygon primitive as box body*
4,1,4,$2,$3,$4,$5,$6,$7,$8,$9,$2,$3,0*
0 Add four circle primitives for the rounded corners*
1,1,$1+$1,$2,$3*
1,1,$1+$1,$4,$5*
1,1,$1+$1,$6,$7*
1,1,$1+$1,$8,$9*
0 Add four rect primitives between the rounded corners*
20,1,$1+$1,$2,$3,$4,$5,0*
20,1,$1+$1,$4,$5,$6,$7,0*
20,1,$1+$1,$6,$7,$8,$9,0*
20,1,$1+$1,$8,$9,$2,$3,0*%
G04 Aperture macros list end*
%TA.AperFunction,ComponentPad*%
%ADD10C,1.600000*%
%TD*%
%TA.AperFunction,ComponentPad*%
%ADD11R,1.500000X1.500000*%
%TD*%
%TA.AperFunction,ComponentPad*%
%ADD12C,2.200000*%
%TD*%
%TA.AperFunction,ComponentPad*%
%ADD13C,2.000000*%
%TD*%
%TA.AperFunction,ComponentPad*%
%ADD14RoundRect,0.250000X-0.350000X-0.625000X0.350000X-0.625000X0.350000X0.625000X-0.350000X0.625000X0*%
%TD*%
%TA.AperFunction,ComponentPad*%
%ADD15O,1.200000X1.750000*%
%TD*%
%TA.AperFunction,ComponentPad*%
%ADD16O,3.200000X1.900000*%
%TD*%
%TA.AperFunction,ComponentPad*%
%ADD17C,1.500000*%
%TD*%
%TA.AperFunction,ComponentPad*%
%ADD18C,4.350000*%
%TD*%
%TA.AperFunction,ViaPad*%
%ADD19C,0.600000*%
%TD*%
%TA.AperFunction,Conductor*%
%ADD20C,0.200000*%
%TD*%
G04 APERTURE END LIST*
D10*
%TO.P,SW2,3,A*%
%TO.N,unconnected-(SW2-A-Pad3)*%
X149790000Y-39000000D03*
%TO.P,SW2,2,C*%
%TO.N,Net-(SW2-C)*%
X144710000Y-39000000D03*
D11*
%TO.P,SW2,1,B*%
%TO.N,Net-(J2-VDD)*%
X147250000Y-39000000D03*
%TD*%
D12*
%TO.P,J5,NC*%
%TO.N,N/C*%
X150750000Y-79350000D03*
X150750000Y-69350000D03*
X145750000Y-74350000D03*
D13*
%TO.P,J5,R*%
%TO.N,Net-(C14-Pad1)*%
X145750000Y-69350000D03*
%TO.P,J5,RN*%
%TO.N,GND*%
X145750000Y-71850000D03*
D12*
%TO.P,J5,S*%
X150750000Y-74350000D03*
D13*
%TO.P,J5,T*%
%TO.N,Net-(C13-Pad1)*%
X145750000Y-79350000D03*
%TO.P,J5,TN*%
%TO.N,Net-(U5-IO0_7)*%
X145750000Y-76850000D03*
%TD*%
D11*
%TO.P,SW1,1,1*%
%TO.N,Net-(J1-Pin_1)*%
X102500000Y-43040000D03*
D10*
%TO.P,SW1,2,2*%
%TO.N,Net-(U1-BAT)*%
X102500000Y-45580000D03*
%TO.P,SW1,3*%
%TO.N,N/C*%
X102500000Y-40500000D03*
%TD*%
D14*
%TO.P,J1,1,Pin_1*%
%TO.N,Net-(J1-Pin_1)*%
X127250000Y-40350000D03*
D15*
%TO.P,J1,2,Pin_2*%
%TO.N,GND*%
X129250000Y-40350000D03*
%TD*%
D16*
%TO.P,SW7,1,1*%
%TO.N,Net-(U5-IO0_0)*%
X136500000Y-80100000D03*
X124000000Y-80100000D03*
%TO.P,SW7,2,2*%
%TO.N,Net-(SW2-C)*%
X136500000Y-85100000D03*
X124000000Y-85100000D03*
%TD*%
D10*
%TO.P,U2,1*%
%TO.N,N/C*%
X152950000Y-65630000D03*
%TO.P,U2,2*%
X150410000Y-65630000D03*
%TO.P,U2,3,GND*%
%TO.N,GND*%
X147870000Y-65630000D03*
%TO.P,U2,4*%
%TO.N,N/C*%
X145330000Y-65630000D03*
%TO.P,U2,5*%
X142790000Y-65630000D03*
%TO.P,U2,6*%
X140250000Y-65630000D03*
%TO.P,U2,7*%
X137710000Y-65630000D03*
%TO.P,U2,8*%
X135170000Y-65630000D03*
%TO.P,U2,9*%
X132630000Y-65630000D03*
%TO.P,U2,10*%
X130090000Y-65630000D03*
%TO.P,U2,11,SPI_DC*%
%TO.N,Net-(U2-SPI_DC)*%
X127550000Y-65630000D03*
%TO.P,U2,12,SPI_CS*%
%TO.N,Net-(U2-SPI_CS)*%
X125010000Y-65630000D03*
%TO.P,U2,13,GND*%
%TO.N,GND*%
X122470000Y-65630000D03*
%TO.P,U2,14,SPI_CLK*%
%TO.N,Net-(J2-CLK)*%
X119930000Y-65630000D03*
%TO.P,U2,15,SPI_DIN*%
%TO.N,Net-(J2-CMD)*%
X117390000Y-65630000D03*
%TO.P,U2,16,RST*%
%TO.N,Net-(U2-RST)*%
X114850000Y-65630000D03*
%TO.P,U2,17,BL*%
%TO.N,Net-(SW2-C)*%
X112310000Y-65630000D03*
%TO.P,U2,18,GND*%
%TO.N,GND*%
X109770000Y-65630000D03*
%TO.P,U2,19*%
%TO.N,N/C*%
X107230000Y-65630000D03*
%TO.P,U2,20*%
X104690000Y-65630000D03*
%TO.P,U2,21*%
X152950000Y-47850000D03*
%TO.P,U2,22*%
X150410000Y-47850000D03*
%TO.P,U2,23,GND*%
%TO.N,GND*%
X147870000Y-47850000D03*
%TO.P,U2,24*%
%TO.N,N/C*%
X145330000Y-47850000D03*
%TO.P,U2,25*%
X142790000Y-47850000D03*
%TO.P,U2,26*%
X140250000Y-47850000D03*
%TO.P,U2,27*%
X137710000Y-47850000D03*
%TO.P,U2,28,GND*%
%TO.N,GND*%
X135170000Y-47850000D03*
%TO.P,U2,29*%
%TO.N,N/C*%
X132630000Y-47850000D03*
%TO.P,U2,30*%
X130090000Y-47850000D03*
%TO.P,U2,31*%
X127550000Y-47850000D03*
%TO.P,U2,32*%
X125010000Y-47850000D03*
%TO.P,U2,33,GND*%
%TO.N,GND*%
X122470000Y-47850000D03*
%TO.P,U2,34*%
%TO.N,N/C*%
X119930000Y-47850000D03*
%TO.P,U2,35*%
X117390000Y-47850000D03*
%TO.P,U2,36*%
X114850000Y-47850000D03*
%TO.P,U2,37*%
X112310000Y-47850000D03*
%TO.P,U2,38,GND*%
%TO.N,GND*%
X109770000Y-47850000D03*
%TO.P,U2,39*%
%TO.N,N/C*%
X107230000Y-47850000D03*
%TO.P,U2,40*%
X104690000Y-47850000D03*
%TD*%
D16*
%TO.P,SW4,1,1*%
%TO.N,Net-(U5-IO0_3)*%
X136500000Y-111550000D03*
X124000000Y-111550000D03*
%TO.P,SW4,2,2*%
%TO.N,Net-(SW2-C)*%
X136500000Y-116550000D03*
X124000000Y-116550000D03*
%TD*%
%TO.P,SW3,1,1*%
%TO.N,Net-(U5-IO0_1)*%
X136500000Y-96000000D03*
X124000000Y-96000000D03*
%TO.P,SW3,2,2*%
%TO.N,Net-(SW2-C)*%
X136500000Y-101000000D03*
X124000000Y-101000000D03*
%TD*%
D17*
%TO.P,SW8,A,A*%
%TO.N,Net-(U5-IO0_5)*%
X150250000Y-129350000D03*
%TO.P,SW8,B,B*%
%TO.N,GND*%
X145250000Y-129350000D03*
%TO.P,SW8,C,C*%
%TO.N,Net-(U5-IO0_6)*%
X147750000Y-129350000D03*
%TO.P,SW8,MH1*%
%TO.N,N/C*%
X150250000Y-114850000D03*
%TO.P,SW8,MH2*%
X145250000Y-114850000D03*
D18*
%TO.P,SW8,MH3*%
X153350000Y-121850000D03*
%TO.P,SW8,MH4*%
X142150000Y-121850000D03*
%TD*%
D16*
%TO.P,SW5,1,1*%
%TO.N,Net-(U5-IO0_4)*%
X120000000Y-96100000D03*
X107500000Y-96100000D03*
%TO.P,SW5,2,2*%
%TO.N,Net-(SW2-C)*%
X120000000Y-101100000D03*
X107500000Y-101100000D03*
%TD*%
%TO.P,SW6,1,1*%
%TO.N,Net-(U5-IO0_2)*%
X153000000Y-96100000D03*
X140500000Y-96100000D03*
%TO.P,SW6,2,2*%
%TO.N,Net-(SW2-C)*%
X153000000Y-101100000D03*
X140500000Y-101100000D03*
%TD*%
D19*
%TO.N,GND*%
X105750000Y-125250000D03*
X114500000Y-122750000D03*
X108750000Y-127000000D03*
%TO.N,Net-(J2-CMD)*%
X105500000Y-119750000D03*
%TO.N,Net-(U1-GPIO5_A4_D4_SDA)*%
X118000000Y-116750000D03*
%TO.N,Net-(U1-CHIP_EN)*%
X106000000Y-110250000D03*
X111811125Y-127811125D03*
%TO.N,Net-(U1-BAT)*%
X114250000Y-121000000D03*
%TO.N,GND*%
X137214878Y-74035122D03*
X139500000Y-84000000D03*
X119174265Y-71174265D03*
X139500000Y-88500000D03*
X153500000Y-85000000D03*
X148000000Y-85000000D03*
X118000000Y-52500000D03*
X136250000Y-78250000D03*
X132500000Y-86500000D03*
X109500000Y-53500000D03*
X148000000Y-83000000D03*
X142000000Y-71500000D03*
X113500000Y-71000000D03*
X124500000Y-71000000D03*
X148000000Y-88500000D03*
%TO.N,Net-(J2-DAT3{slash}CD)*%
X119000000Y-68500000D03*
X116500000Y-71000000D03*
%TO.N,Net-(J2-CLK)*%
X108575000Y-54275000D03*
X114752744Y-82072988D03*
%TO.N,Net-(SW2-C)*%
X111500000Y-79500000D03*
X126500000Y-61500000D03*
%TO.N,Net-(U1-GPIO5_A4_D4_SDA)*%
X123000000Y-73000000D03*
%TO.N,Net-(U1-GPIO6_A5_D5_SCL)*%
X121250000Y-114250000D03*
X123400243Y-78079999D03*
X122500000Y-75420000D03*
%TO.N,Net-(U3-OUTR)*%
X138500000Y-74500000D03*
X139000000Y-76000000D03*
%TO.N,Net-(U5-IO0_6)*%
X112500000Y-78500000D03*
%TO.N,Net-(U5-IO0_5)*%
X108500000Y-80000000D03*
X113000000Y-75390000D03*
%TO.N,Net-(U5-IO0_3)*%
X116500000Y-75000000D03*
%TO.N,Net-(U5-IO0_4)*%
X117500000Y-76500000D03*
%TO.N,Net-(U5-IO0_2)*%
X117065687Y-74434313D03*
%TO.N,Net-(U2-SPI_CS)*%
X123500000Y-76000000D03*
%TO.N,Net-(U5-IO0_0)*%
X117000000Y-72500000D03*
%TO.N,Net-(U2-SPI_DC)*%
X118500000Y-72000000D03*
%TO.N,Net-(U1-GPIO4_A3_D3)*%
X121750000Y-119500000D03*
X136074197Y-109574197D03*
%TO.N,Net-(U1-GPIO1_A0_D0)*%
X122500000Y-121000000D03*
X121500000Y-127000000D03*
%TO.N,Net-(U2-RST)*%
X125000000Y-76500000D03*
%TO.N,Net-(U5-IO0_7)*%
X129150000Y-76850000D03*
X116000000Y-77500000D03*
%TO.N,Net-(U1-BAT)*%
X102000000Y-47500000D03*
%TD*%
D20*
%TO.N,Net-(J2-CMD)*%
X105201000Y-106748976D02*
X105198000Y-106745976D01*
X105500000Y-119750000D02*
X105500000Y-119248250D01*
X105201000Y-118949250D02*
X105201000Y-106748976D01*
X105198000Y-77822000D02*
X117390000Y-65630000D01*
X105198000Y-106745976D02*
X105198000Y-77822000D01*
X105500000Y-119248250D02*
X105201000Y-118949250D01*
%TO.N,Net-(J2-DAT3{slash}CD)*%
X119000000Y-70500000D02*
X119000000Y-68500000D01*
X116500000Y-71000000D02*
X118500000Y-71000000D01*
X118500000Y-71000000D02*
X119000000Y-70500000D01*
%TO.N,Net-(J2-CLK)*%
X108575000Y-54275000D02*
X119930000Y-65630000D01*
%TO.N,Net-(SW2-C)*%
X122000000Y-87100000D02*
X122000000Y-98500000D01*
X113600000Y-85100000D02*
X124000000Y-85100000D01*
X124000000Y-101000000D02*
X120100000Y-101000000D01*
X136500000Y-101000000D02*
X140400000Y-101000000D01*
X120000000Y-101100000D02*
X107500000Y-101100000D01*
X124000000Y-101000000D02*
X125901000Y-102901000D01*
X136500000Y-116550000D02*
X138381000Y-114669000D01*
X140400000Y-101000000D02*
X140500000Y-101100000D01*
X124000000Y-85100000D02*
X122000000Y-87100000D01*
X111500000Y-79500000D02*
X111500000Y-83000000D01*
X111500000Y-83000000D02*
X113600000Y-85100000D01*
X124000000Y-85100000D02*
X136500000Y-85100000D01*
X136500000Y-116550000D02*
X124000000Y-116550000D01*
X122000000Y-98500000D02*
X124500000Y-101000000D01*
X140500000Y-101100000D02*
X153000000Y-101100000D01*
X124000000Y-101000000D02*
X136500000Y-101000000D01*
X124500000Y-101000000D02*
X124000000Y-101000000D01*
X138381000Y-114669000D02*
X138381000Y-111040103D01*
X130241897Y-102901000D02*
X125901000Y-102901000D01*
X120100000Y-101000000D02*
X120000000Y-101100000D01*
X138381000Y-111040103D02*
X130241897Y-102901000D01*
%TO.N,Net-(U1-GPIO6_A5_D5_SCL)*%
X123400243Y-78079999D02*
X122500000Y-77179756D01*
X122500000Y-77179756D02*
X122500000Y-75420000D01*
%TO.N,Net-(U5-IO0_1)*%
X124000000Y-96000000D02*
X136500000Y-96000000D01*
%TO.N,Net-(U5-IO0_3)*%
X105599000Y-101618181D02*
X105599000Y-77988100D01*
X116289000Y-74789000D02*
X116500000Y-75000000D01*
X136500000Y-111550000D02*
X124000000Y-111550000D01*
X108798100Y-74789000D02*
X116289000Y-74789000D01*
X105599000Y-77988100D02*
X108798100Y-74789000D01*
X115530819Y-111550000D02*
X105599000Y-101618181D01*
X124000000Y-111550000D02*
X115530819Y-111550000D01*
%TO.N,Net-(U5-IO0_4)*%
X113000000Y-76500000D02*
X110000000Y-79500000D01*
X107500000Y-96100000D02*
X120000000Y-96100000D01*
X110000000Y-86500000D02*
X107500000Y-89000000D01*
X110000000Y-79500000D02*
X110000000Y-86500000D01*
X107500000Y-89000000D02*
X107500000Y-96100000D01*
X117500000Y-76500000D02*
X113000000Y-76500000D01*
%TO.N,Net-(U5-IO0_2)*%
X117582256Y-74434313D02*
X117065687Y-74434313D01*
X153000000Y-96100000D02*
X140500000Y-96100000D01*
X121399000Y-78251057D02*
X117582256Y-74434313D01*
X140500000Y-96100000D02*
X140500000Y-86000000D01*
X140500000Y-86000000D02*
X136180819Y-81680819D01*
X123161638Y-81680819D02*
X121399000Y-79918181D01*
X136180819Y-81680819D02*
X123161638Y-81680819D01*
X121399000Y-79918181D02*
X121399000Y-78251057D01*
%TO.N,Net-(U5-IO0_0)*%
X124000000Y-80100000D02*
X136500000Y-80100000D01*
X117000000Y-72500000D02*
X124000000Y-79500000D01*
X124000000Y-79500000D02*
X124000000Y-80100000D01*
%TO.N,Net-(U2-SPI_DC)*%
X118500000Y-72000000D02*
X121180000Y-72000000D01*
X121180000Y-72000000D02*
X127550000Y-65630000D01*
%TO.N,Net-(U1-CHIP_EN)*%
X111811125Y-116061125D02*
X111811125Y-127811125D01*
X106000000Y-110250000D02*
X111811125Y-116061125D01*
%TD*%
M02*
